<svg xmlns="http://www.w3.org/2000/svg" xmlns:svg="http://www.w3.org/2000/svg" id="svg7384" width="16" height="16.001" version="1.1"><title id="title9167">Gnome Symbolic Icon Theme</title><metadata id="metadata90"/><path style="text-indent:0;text-transform:none;block-progression:tb" id="rect11749-5" fill="#bebebe" d="M 2.19,0 C 0.99,0 0,0.99 0,2.19 v 8.625 c 0,1.1999 0.9859,2.1875 2.1875,2.1875 h 11.625 C 15.0141,13.0025 16,12.01492 16,10.815 V 2.19 c -0.01,-1.21 -1,-2.2 -2.2,-2.2 H 2.175 z m 0,2 h 11.625 c 0.1238,0 0.1875,0.0566 0.1875,0.1875 v 8.625 C 14.0025,10.9434 13.9388,11 13.815,11 H 2.19 C 2.05,10.99 1.99,10.93 1.99,10.8 V 2.175 c 0,-0.12 0.06,-0.18 0.19,-0.18 z" color="#bebebe"/><path style="text-indent:0;text-transform:none;block-progression:tb" id="path11751-2" fill="#bebebe" d="M 4.91,14 A 1.0011,1.0011 0 1 0 5,16 h 6 a 1.0001,1.0001 0 1 0 0,-2 H 5 a 1.0001,1.0001 0 0 0 -0.0937,0 z" color="#bebebe"/><path id="path3753" fill="none" stroke="#bebebe" stroke-dasharray="none" stroke-linecap="round" stroke-linejoin="miter" stroke-miterlimit="4" stroke-opacity="1" stroke-width="2" d="M 1,1.0009995 15,12.000999"/><path id="path3755" fill="none" stroke="#bebebe" stroke-dasharray="none" stroke-linecap="round" stroke-linejoin="miter" stroke-miterlimit="4" stroke-opacity="1" stroke-width="2" d="M 15,1.0009995 1,12.000999"/></svg>