<svg xmlns="http://www.w3.org/2000/svg" xmlns:svg="http://www.w3.org/2000/svg" id="svg7384" width="16" height="16.001" version="1.1"><title id="title9167">Gnome Symbolic Icon Theme</title><metadata id="metadata90"/><path id="rect11749-5" fill="#bebebe" d="M 2.19,0 C 0.99,0 0,0.99 0,2.19 v 8.625 c 0,1.1999 0.9859,2.1875 2.1875,2.1875 h 11.625 C 15.0141,13.0025 16,12.01492 16,10.815 V 2.19 c -0.01,-1.21 -1,-2.2 -2.2,-2.2 H 2.175 z m 0,2 h 11.625 c 0.1238,0 0.1875,0.0566 0.1875,0.1875 v 8.625 C 14.0025,10.9434 13.9388,11 13.815,11 H 2.19 C 2.05,10.99 1.99,10.93 1.99,10.8 V 2.175 c 0,-0.12 0.06,-0.18 0.19,-0.18 z" color="#bebebe" style="text-indent:0;text-transform:none;block-progression:tb"/><path id="path11751-2" fill="#bebebe" d="M 4.91,14 A 1.0011,1.0011 0 1 0 5,16 h 6 a 1.0001,1.0001 0 1 0 0,-2 H 5 a 1.0001,1.0001 0 0 0 -0.0937,0 z" color="#bebebe" style="text-indent:0;text-transform:none;block-progression:tb"/><g id="layer12" transform="matrix(0.81712632,0,0,0.69964909,-64.398899,-423.0818)"><path id="path3807-1-1-9-38-4" fill="#bebebe" d="m 84,609 v 10 h 0.90625 0.094 c 0.17491,10e-4 0.34778,-0.0388 0.5,-0.125 l 7,-4 c 0.3107,-0.17189 0.46875,-0.52345 0.46875,-0.875 0,-0.35155 -0.15805,-0.70311 -0.46875,-0.875 l -7,-4 c -0.152,-0.09 -0.325,-0.13 -0.5,-0.13 H 84.9065 z" color="#000" style="text-indent:0;text-transform:none;block-progression:tb"/></g></svg>