<svg xmlns="http://www.w3.org/2000/svg" xmlns:xlink="http://www.w3.org/1999/xlink" width="24" height="22" version="1.1"><defs><linearGradient id="b" x1="205.84" x2="206.75" y1="246.71" y2="231.24" gradientTransform="matrix(.84337 0 0 .84337 -162.63 -191.67)" gradientUnits="userSpaceOnUse"><stop offset="0" stop-color="#0b2e52"/><stop offset="1" stop-color="#1862af"/></linearGradient><linearGradient id="a" x1="-92.999" x2="-92.999" y1="-393.42" y2="-401.07" gradientTransform="matrix(2.5502 0 0 1.3732 246.17 553.26)" gradientUnits="userSpaceOnUse"><stop offset="0" stop-color="#515151"/><stop offset="1" stop-color="#292929"/></linearGradient></defs><rect width="18" height="18" x="1" y="2" fill="url(#a)" stroke="#3465a4" stroke-width="2" rx="1.6" ry="1.6"/><g fill="none"><g stroke-linecap="round" stroke-linejoin="round"><path stroke="url(#b)" stroke-width="6" d="m4.7769 10.743 4.4277 4.428 11.795-12.171"/><path stroke="#4787c8" stroke-width="3" d="m4.7769 10.743 4.4277 4.428 11.733-12.077"/></g><path stroke="#7ea7d3" stroke-width="1" d="m3.8998 11.139c-0.1503-0.247-0.1694-0.569-0.0508-0.834 0.1185-0.264 0.3689-0.4619 0.6506-0.5294s0.5846-0.0085 0.8403 0.1279c0.2557 0.1365 0.4651 0.3435 0.6676 0.5505l3.0904 3.16 10.862-10.956c0.17539-0.17689 0.3568-0.35395 0.57811-0.46826 0.22132-0.1143 0.48319-0.16068 0.72384-0.096363 0.12032 0.032132 0.23368 0.090974 0.32785 0.17249 0.09418 0.08147 0.16885 0.18558 0.21488 0.3013 0.04605 0.11573 0.06325 0.24283 0.04934 0.3666-0.01392 0.12376-0.05904 0.24389-0.13006 0.34622"/></g></svg>