<svg xmlns="http://www.w3.org/2000/svg" xmlns:xlink="http://www.w3.org/1999/xlink" width="96" height="96" version="1.1"><defs><linearGradient id="g"><stop offset="0" stop-color="#c3b194"/><stop offset="1" stop-color="#e1c497"/></linearGradient><linearGradient id="e"><stop offset="0" stop-color="#c4c4c4"/><stop offset="1" stop-color="#f1f1f1"/></linearGradient><linearGradient id="c"><stop offset="0" stop-color="#fff"/><stop offset=".499" stop-color="#ccc"/><stop offset=".608" stop-color="#969696"/><stop offset="1" stop-color="#fff"/></linearGradient><linearGradient id="a"><stop offset="0" stop-color="#fff"/><stop offset=".397" stop-color="#ccc"/><stop offset=".499" stop-color="#ccc"/><stop offset=".608" stop-color="#777"/><stop offset="1" stop-color="#fff"/></linearGradient><linearGradient id="h"><stop offset="0" stop-color="#4d4d4d"/><stop offset="1" stop-color="#333"/></linearGradient><linearGradient id="b"><stop offset="0" stop-color="#ffbd2a"/><stop offset="1" stop-color="#ffe62a"/></linearGradient><linearGradient id="d" x1="45.448" x2="45.448" y1="92.54" y2="7.016" gradientTransform="scale(1.0059 .99417)" gradientUnits="userSpaceOnUse"><stop offset="0"/><stop offset="1" stop-opacity=".588"/></linearGradient><linearGradient id="f" stop-color="#fff"><stop offset="0"/><stop offset="1" stop-opacity="0"/></linearGradient><filter id="dy" width="1.384" height="1.384" x="-.192" y="-.192" color-interpolation-filters="sRGB"><feGaussianBlur stdDeviation="5.28"/></filter><linearGradient id="dx" x1="48" x2="48" y1="20.221" y2="138.66" gradientUnits="userSpaceOnUse" xlink:href="#f"/><clipPath id="dz"><rect width="84" height="84" x="6" y="6" fill="#fff" rx="6" ry="6"/></clipPath><radialGradient id="dv" cx="48" cy="90" r="42" gradientTransform="matrix(1.1429,0,0,1,-6.8571,0)" gradientUnits="userSpaceOnUse" xlink:href="#f"/><linearGradient id="ea" x1="40" x2="40" y1="8" y2="72" gradientUnits="userSpaceOnUse" xlink:href="#f"/><linearGradient id="eb" x1="48" x2="48" y1="90" y2="5.988" gradientTransform="translate(12,12)" gradientUnits="userSpaceOnUse"><stop offset="0" stop-color="#958741"/><stop offset="1" stop-color="#b4ba66"/></linearGradient><linearGradient id="ec" x1="48" x2="48" y1="90" y2="5.988" gradientUnits="userSpaceOnUse"><stop offset="0" stop-color="#3e8116"/><stop offset="1" stop-color="#66ae3b"/></linearGradient><linearGradient id="ed" x1="62" x2="62" y1="25" y2="32" gradientUnits="userSpaceOnUse" xlink:href="#h"/><radialGradient id="dw" cx="32" cy="32" r="16" gradientTransform="matrix(1.5,0,0,1.5,-16,-16)" gradientUnits="userSpaceOnUse" xlink:href="#h"/><linearGradient id="ee" x1="46" x2="46" y1="70" y2="64" gradientTransform="translate(18)" gradientUnits="userSpaceOnUse" xlink:href="#e"/><linearGradient id="ef" x1="46" x2="46" y1="70" y2="64" gradientTransform="translate(12)" gradientUnits="userSpaceOnUse" xlink:href="#e"/><linearGradient id="eg" x1="46" x2="46" y1="70" y2="64" gradientTransform="translate(6)" gradientUnits="userSpaceOnUse" xlink:href="#e"/><linearGradient id="eh" x1="11" x2="16" y1="25" y2="25" gradientTransform="matrix(.8 0 0 1 -44.8 -94)" gradientUnits="userSpaceOnUse" xlink:href="#c"/><linearGradient id="ei" x1="11" x2="16" y1="25" y2="25" gradientTransform="matrix(.8 0 0 1 -44.8 -90)" gradientUnits="userSpaceOnUse" xlink:href="#c"/><linearGradient id="ej" x1="11" x2="16" y1="25" y2="25" gradientTransform="matrix(.8 0 0 1 -44.8 -86)" gradientUnits="userSpaceOnUse" xlink:href="#c"/><linearGradient id="ek" x1="11" x2="16" y1="25" y2="25" gradientTransform="matrix(.8 0 0 1 -44.8 -82)" gradientUnits="userSpaceOnUse" xlink:href="#c"/><linearGradient id="el" x1="11" x2="16" y1="25" y2="25" gradientTransform="matrix(.8 0 0 1 11.2 -94)" gradientUnits="userSpaceOnUse" xlink:href="#c"/><linearGradient id="em" x1="11" x2="16" y1="25" y2="25" gradientTransform="matrix(.8 0 0 1 11.2 -90)" gradientUnits="userSpaceOnUse" xlink:href="#c"/><linearGradient id="en" x1="11" x2="16" y1="25" y2="25" gradientTransform="matrix(.8 0 0 1 11.2 -86)" gradientUnits="userSpaceOnUse" xlink:href="#c"/><linearGradient id="eo" x1="11" x2="16" y1="25" y2="25" gradientTransform="matrix(.8 0 0 1 11.2 -82)" gradientUnits="userSpaceOnUse" xlink:href="#c"/><linearGradient id="ep" x1="11" x2="16" y1="25" y2="25" gradientTransform="matrix(.8 0 0 .5 -68.8 4)" gradientUnits="userSpaceOnUse" xlink:href="#a"/><linearGradient id="eq" x1="11" x2="16" y1="25" y2="25" gradientTransform="matrix(.8 0 0 .5 -68.8 6)" gradientUnits="userSpaceOnUse" xlink:href="#a"/><linearGradient id="er" x1="11" x2="16" y1="25" y2="25" gradientTransform="matrix(.8 0 0 .5 -68.8 8)" gradientUnits="userSpaceOnUse" xlink:href="#a"/><linearGradient id="es" x1="11" x2="16" y1="25" y2="25" gradientTransform="matrix(.8 0 0 .5 -68.8 10)" gradientUnits="userSpaceOnUse" xlink:href="#a"/><linearGradient id="et" x1="11" x2="16" y1="25" y2="25" gradientTransform="matrix(.8 0 0 .5 -68.8 12)" gradientUnits="userSpaceOnUse" xlink:href="#a"/><linearGradient id="eu" x1="11" x2="16" y1="25" y2="25" gradientTransform="matrix(.8 0 0 .5 -68.8 14)" gradientUnits="userSpaceOnUse" xlink:href="#a"/><linearGradient id="ev" x1="11" x2="16" y1="25" y2="25" gradientTransform="matrix(.8 0 0 .5 -68.8 16)" gradientUnits="userSpaceOnUse" xlink:href="#a"/><linearGradient id="ew" x1="11" x2="16" y1="25" y2="25" gradientTransform="matrix(.8 0 0 .5 -68.8 18)" gradientUnits="userSpaceOnUse" xlink:href="#a"/><linearGradient id="ex" x1="11" x2="16" y1="25" y2="25" gradientTransform="matrix(.8 0 0 .5 -68.8 20)" gradientUnits="userSpaceOnUse" xlink:href="#a"/><linearGradient id="ey" x1="11" x2="16" y1="25" y2="25" gradientTransform="matrix(.8 0 0 .5 -68.8 22)" gradientUnits="userSpaceOnUse" xlink:href="#a"/><linearGradient id="ez" x1="11" x2="16" y1="25" y2="25" gradientTransform="matrix(.8 0 0 .5 -68.8 24)" gradientUnits="userSpaceOnUse" xlink:href="#a"/><linearGradient id="fa" x1="11" x2="16" y1="25" y2="25" gradientTransform="matrix(.8 0 0 .5 -68.8 26)" gradientUnits="userSpaceOnUse" xlink:href="#a"/><linearGradient id="fb" x1="11" x2="16" y1="25" y2="25" gradientTransform="matrix(.8 0 0 .5 -68.8 28)" gradientUnits="userSpaceOnUse" xlink:href="#a"/><linearGradient id="fc" x1="11" x2="16" y1="25" y2="25" gradientTransform="matrix(.8 0 0 .5 -68.8 30)" gradientUnits="userSpaceOnUse" xlink:href="#a"/><linearGradient id="fd" x1="11" x2="16" y1="25" y2="25" gradientTransform="matrix(.8 0 0 .5 -68.8 32)" gradientUnits="userSpaceOnUse" xlink:href="#a"/><linearGradient id="fe" x1="11" x2="16" y1="25" y2="25" gradientTransform="matrix(.8 0 0 .5 -68.8 34)" gradientUnits="userSpaceOnUse" xlink:href="#a"/><linearGradient id="ff" x1="11" x2="16" y1="25" y2="25" gradientTransform="matrix(.8 0 0 .5 -60.8 -68)" gradientUnits="userSpaceOnUse" xlink:href="#a"/><linearGradient id="fg" x1="11" x2="16" y1="25" y2="25" gradientTransform="matrix(.8 0 0 .5 -60.8 -66)" gradientUnits="userSpaceOnUse" xlink:href="#a"/><linearGradient id="fh" x1="11" x2="16" y1="25" y2="25" gradientTransform="matrix(.8 0 0 .5 -60.8 -64)" gradientUnits="userSpaceOnUse" xlink:href="#a"/><linearGradient id="fi" x1="11" x2="16" y1="25" y2="25" gradientTransform="matrix(.8 0 0 .5 -60.8 -62)" gradientUnits="userSpaceOnUse" xlink:href="#a"/><linearGradient id="fj" x1="11" x2="16" y1="25" y2="25" gradientTransform="matrix(.8 0 0 .5 -60.8 -60)" gradientUnits="userSpaceOnUse" xlink:href="#a"/><linearGradient id="fk" x1="11" x2="16" y1="25" y2="25" gradientTransform="matrix(.8 0 0 .5 -60.8 -58)" gradientUnits="userSpaceOnUse" xlink:href="#a"/><linearGradient id="fl" x1="11" x2="16" y1="25" y2="25" gradientTransform="matrix(.8 0 0 .5 -60.8 -56)" gradientUnits="userSpaceOnUse" xlink:href="#a"/><linearGradient id="fm" x1="11" x2="16" y1="25" y2="25" gradientTransform="matrix(.8 0 0 .5 -60.8 -54)" gradientUnits="userSpaceOnUse" xlink:href="#a"/><linearGradient id="fn" x1="11" x2="16" y1="25" y2="25" gradientTransform="matrix(.8 0 0 .5 -60.8 -52)" gradientUnits="userSpaceOnUse" xlink:href="#a"/><linearGradient id="fo" x1="11" x2="16" y1="25" y2="25" gradientTransform="matrix(.8 0 0 .5 -60.8 -50)" gradientUnits="userSpaceOnUse" xlink:href="#a"/><linearGradient id="fp" x1="11" x2="16" y1="25" y2="25" gradientTransform="matrix(.8 0 0 .5 -60.8 -48)" gradientUnits="userSpaceOnUse" xlink:href="#a"/><linearGradient id="fq" x1="11" x2="16" y1="25" y2="25" gradientTransform="matrix(.8 0 0 .5 -60.8 -46)" gradientUnits="userSpaceOnUse" xlink:href="#a"/><linearGradient id="fr" x1="11" x2="16" y1="25" y2="25" gradientTransform="matrix(.8 0 0 .5 -60.8 -44)" gradientUnits="userSpaceOnUse" xlink:href="#a"/><linearGradient id="fs" x1="11" x2="16" y1="25" y2="25" gradientTransform="matrix(.8 0 0 .5 -60.8 -42)" gradientUnits="userSpaceOnUse" xlink:href="#a"/><linearGradient id="ft" x1="11" x2="16" y1="25" y2="25" gradientTransform="matrix(.8 0 0 .5 -60.8 -40)" gradientUnits="userSpaceOnUse" xlink:href="#a"/><linearGradient id="fu" x1="11" x2="16" y1="25" y2="25" gradientTransform="matrix(.8 0 0 .5 -60.8 -38)" gradientUnits="userSpaceOnUse" xlink:href="#a"/><linearGradient id="fv" x1="11" x2="16" y1="25" y2="25" gradientTransform="matrix(.8 0 0 .5 11.2 -60)" gradientUnits="userSpaceOnUse" xlink:href="#a"/><linearGradient id="fw" x1="11" x2="16" y1="25" y2="25" gradientTransform="matrix(.8 0 0 .5 11.2 -58)" gradientUnits="userSpaceOnUse" xlink:href="#a"/><linearGradient id="fx" x1="11" x2="16" y1="25" y2="25" gradientTransform="matrix(.8 0 0 .5 11.2 -56)" gradientUnits="userSpaceOnUse" xlink:href="#a"/><linearGradient id="fy" x1="11" x2="16" y1="25" y2="25" gradientTransform="matrix(.8 0 0 .5 11.2 -54)" gradientUnits="userSpaceOnUse" xlink:href="#a"/><linearGradient id="fz" x1="11" x2="16" y1="25" y2="25" gradientTransform="matrix(.8 0 0 .5 11.2 -52)" gradientUnits="userSpaceOnUse" xlink:href="#a"/><linearGradient id="ga" x1="11" x2="16" y1="25" y2="25" gradientTransform="matrix(.8 0 0 .5 11.2 -50)" gradientUnits="userSpaceOnUse" xlink:href="#a"/><linearGradient id="gb" x1="11" x2="16" y1="25" y2="25" gradientTransform="matrix(.8 0 0 .5 11.2 -48)" gradientUnits="userSpaceOnUse" xlink:href="#a"/><linearGradient id="gc" x1="11" x2="16" y1="25" y2="25" gradientTransform="matrix(.8 0 0 .5 11.2 -46)" gradientUnits="userSpaceOnUse" xlink:href="#a"/><linearGradient id="gd" x1="11" x2="16" y1="25" y2="25" gradientTransform="matrix(.8 0 0 .5 11.2 -44)" gradientUnits="userSpaceOnUse" xlink:href="#a"/><linearGradient id="ge" x1="11" x2="16" y1="25" y2="25" gradientTransform="matrix(.8 0 0 .5 11.2 -42)" gradientUnits="userSpaceOnUse" xlink:href="#a"/><linearGradient id="gf" x1="11" x2="16" y1="25" y2="25" gradientTransform="matrix(.8 0 0 .5 11.2 -40)" gradientUnits="userSpaceOnUse" xlink:href="#a"/><linearGradient id="gg" x1="11" x2="16" y1="25" y2="25" gradientTransform="matrix(.8 0 0 .5 11.2 -38)" gradientUnits="userSpaceOnUse" xlink:href="#a"/><linearGradient id="gh" x1="11" x2="16" y1="25" y2="25" gradientTransform="matrix(.8 0 0 .5 11.2 -36)" gradientUnits="userSpaceOnUse" xlink:href="#a"/><linearGradient id="gi" x1="11" x2="16" y1="25" y2="25" gradientTransform="matrix(.8 0 0 .5 11.2 -34)" gradientUnits="userSpaceOnUse" xlink:href="#a"/><linearGradient id="gj" x1="11" x2="16" y1="25" y2="25" gradientTransform="matrix(.8 0 0 .5 11.2 -32)" gradientUnits="userSpaceOnUse" xlink:href="#a"/><linearGradient id="gk" x1="11" x2="16" y1="25" y2="25" gradientTransform="matrix(.8 0 0 .5 11.2 -30)" gradientUnits="userSpaceOnUse" xlink:href="#a"/><linearGradient id="gl" x1="11" x2="16" y1="25" y2="25" gradientTransform="matrix(.8 0 0 .5 3.2 12)" gradientUnits="userSpaceOnUse" xlink:href="#a"/><linearGradient id="gm" x1="11" x2="16" y1="25" y2="25" gradientTransform="matrix(.8 0 0 .5 3.2 14)" gradientUnits="userSpaceOnUse" xlink:href="#a"/><linearGradient id="gn" x1="11" x2="16" y1="25" y2="25" gradientTransform="matrix(.8 0 0 .5 3.2 16)" gradientUnits="userSpaceOnUse" xlink:href="#a"/><linearGradient id="go" x1="11" x2="16" y1="25" y2="25" gradientTransform="matrix(.8 0 0 .5 3.2 18)" gradientUnits="userSpaceOnUse" xlink:href="#a"/><linearGradient id="gp" x1="11" x2="16" y1="25" y2="25" gradientTransform="matrix(.8 0 0 .5 3.2 20)" gradientUnits="userSpaceOnUse" xlink:href="#a"/><linearGradient id="gq" x1="11" x2="16" y1="25" y2="25" gradientTransform="matrix(.8 0 0 .5 3.2 22)" gradientUnits="userSpaceOnUse" xlink:href="#a"/><linearGradient id="gr" x1="11" x2="16" y1="25" y2="25" gradientTransform="matrix(.8 0 0 .5 3.2 24)" gradientUnits="userSpaceOnUse" xlink:href="#a"/><linearGradient id="gs" x1="11" x2="16" y1="25" y2="25" gradientTransform="matrix(.8 0 0 .5 3.2 26)" gradientUnits="userSpaceOnUse" xlink:href="#a"/><linearGradient id="gt" x1="11" x2="16" y1="25" y2="25" gradientTransform="matrix(.8 0 0 .5 3.2 28)" gradientUnits="userSpaceOnUse" xlink:href="#a"/><linearGradient id="gu" x1="11" x2="16" y1="25" y2="25" gradientTransform="matrix(.8 0 0 .5 3.2 30)" gradientUnits="userSpaceOnUse" xlink:href="#a"/><linearGradient id="gv" x1="11" x2="16" y1="25" y2="25" gradientTransform="matrix(.8 0 0 .5 3.2 32)" gradientUnits="userSpaceOnUse" xlink:href="#a"/><linearGradient id="gw" x1="11" x2="16" y1="25" y2="25" gradientTransform="matrix(.8 0 0 .5 3.2 34)" gradientUnits="userSpaceOnUse" xlink:href="#a"/><linearGradient id="gx" x1="11" x2="16" y1="25" y2="25" gradientTransform="matrix(.8 0 0 .5 3.2 36)" gradientUnits="userSpaceOnUse" xlink:href="#a"/><linearGradient id="gy" x1="11" x2="16" y1="25" y2="25" gradientTransform="matrix(.8 0 0 .5 3.2 38)" gradientUnits="userSpaceOnUse" xlink:href="#a"/><linearGradient id="gz" x1="11" x2="16" y1="25" y2="25" gradientTransform="matrix(.8 0 0 .5 3.2 40)" gradientUnits="userSpaceOnUse" xlink:href="#a"/><linearGradient id="ha" x1="11" x2="16" y1="25" y2="25" gradientTransform="matrix(.8 0 0 .5 3.2 42)" gradientUnits="userSpaceOnUse" xlink:href="#a"/><linearGradient id="hb" x1="40" x2="40" y1="24" y2="48" gradientUnits="userSpaceOnUse"><stop offset="0" stop-color="#fff"/><stop offset=".193" stop-color="#7f7f7f" stop-opacity="0"/><stop offset="1"/></linearGradient><linearGradient id="hc" x1="53.612" x2="53.612" y1="75.079" y2="80.929" gradientUnits="userSpaceOnUse" xlink:href="#e"/><linearGradient id="hd" x1="52.765" x2="52.765" y1="81.843" y2="73.812" gradientUnits="userSpaceOnUse"><stop offset="0" stop-color="#dc6819"/><stop offset="1" stop-color="#efa471"/></linearGradient><linearGradient id="he" x1="40" x2="40" y1="80" y2="74" gradientUnits="userSpaceOnUse" xlink:href="#g"/><linearGradient id="hf" x1="34" x2="34" y1="80" y2="74" gradientUnits="userSpaceOnUse" xlink:href="#g"/><linearGradient id="hg" x1="46" x2="46" y1="70" y2="64" gradientUnits="userSpaceOnUse" xlink:href="#e"/><linearGradient id="hh" x1="78" x2="88" y1="72" y2="72" gradientTransform="matrix(1 0 0 .5 -166 -13)" gradientUnits="userSpaceOnUse" xlink:href="#b"/><linearGradient id="hi" x1="78" x2="88" y1="72" y2="72" gradientTransform="matrix(1 0 0 .5 -166 -9)" gradientUnits="userSpaceOnUse" xlink:href="#b"/><linearGradient id="hj" x1="78" x2="88" y1="72" y2="72" gradientTransform="matrix(1 0 0 .5 -166 -5)" gradientUnits="userSpaceOnUse" xlink:href="#b"/><linearGradient id="hk" x1="78" x2="88" y1="72" y2="72" gradientTransform="matrix(1 0 0 .5 -166 -1)" gradientUnits="userSpaceOnUse" xlink:href="#b"/><linearGradient id="i" x1="78" x2="88" y1="72" y2="72" gradientTransform="matrix(1 0 0 .5 -166 9)" gradientUnits="userSpaceOnUse" xlink:href="#b"/><linearGradient id="j" x1="78" x2="88" y1="72" y2="72" gradientTransform="matrix(1 0 0 .5 -166 13)" gradientUnits="userSpaceOnUse" xlink:href="#b"/><linearGradient id="k" x1="78" x2="88" y1="72" y2="72" gradientTransform="matrix(1 0 0 .5 -166 17)" gradientUnits="userSpaceOnUse" xlink:href="#b"/><linearGradient id="x" x1="78" x2="88" y1="72" y2="72" gradientTransform="matrix(1 0 0 .5 -166 21)" gradientUnits="userSpaceOnUse" xlink:href="#b"/><linearGradient id="y" x1="78" x2="88" y1="72" y2="72" gradientTransform="matrix(1 0 0 .5 -166 25)" gradientUnits="userSpaceOnUse" xlink:href="#b"/><linearGradient id="z" x1="78" x2="88" y1="72" y2="72" gradientTransform="matrix(1 0 0 .5 -166 29)" gradientUnits="userSpaceOnUse" xlink:href="#b"/><linearGradient id="bq" x1="78" x2="88" y1="72" y2="72" gradientTransform="matrix(1 0 0 .5 -166 33)" gradientUnits="userSpaceOnUse" xlink:href="#b"/><linearGradient id="bs" x1="78" x2="88" y1="72" y2="72" gradientTransform="matrix(1 0 0 .5 -166 37)" gradientUnits="userSpaceOnUse" xlink:href="#b"/><linearGradient id="bu" x1="40" x2="40" y1="90.818" y2="6.728" gradientUnits="userSpaceOnUse" xlink:href="#d"/><linearGradient id="dr" x1="35.561" x2="35.561" y1="91.982" y2="6.645" gradientUnits="userSpaceOnUse" xlink:href="#d"/><linearGradient id="ds" x1="38.802" x2="38.802" y1="93.283" y2="5.91" gradientUnits="userSpaceOnUse" xlink:href="#d"/><linearGradient id="dt" x1="41.302" x2="41.302" y1="93.716" y2="4.64" gradientUnits="userSpaceOnUse" xlink:href="#d"/><linearGradient id="du" x1="37.082" x2="37.082" y1="95.234" y2="4.415" gradientUnits="userSpaceOnUse" xlink:href="#d"/></defs><path fill="url(#du)" d="m12 3.9688c-5.5295 0-10.031 4.5017-10.031 10.031v71c0 5.5295 4.5018 10.031 10.031 10.031h60c5.5295 0 10.031-4.5018 10.031-10.031v-1.969h6.4688c3.0451 0 5.5312-2.4862 5.5312-5.5312v-56c0-3.0451-2.4862-5.5312-5.5312-5.5312h-6.469v-1.969c0-5.5297-4.502-10.031-10.031-10.031h-60z" opacity=".08"/><path fill="url(#dt)" d="m12 4.9375c-4.9974 0-9.0625 4.0651-9.0625 9.0625v71c0 4.9974 4.0651 9.0625 9.0625 9.0625h60c4.9974 0 9.0625-4.0651 9.0625-9.0625v-2.938h7.438c2.5104 0 4.5625-2.0521 4.5625-4.5625v-56c0-2.5104-2.0521-4.5625-4.5625-4.5625h-7.438v-2.938c0-4.9974-4.065-9.0625-9.062-9.0625h-60z" opacity=".1"/><path fill="url(#ds)" d="m12 5.9062c-4.466 0-8.0938 3.6278-8.0938 8.0938v71c0 4.466 3.6277 8.0938 8.0938 8.0938h60c4.466 0 8.0938-3.6277 8.0938-8.0938v-3.906h8.406c1.973 0 3.5938-1.6207 3.5938-3.5938v-56c0-1.973-1.6207-3.5938-3.5938-3.5938h-8.406v-3.906c0-4.466-3.628-8.0938-8.094-8.0938h-60z" opacity=".2"/><path fill="url(#dr)" d="m12 7c-3.878 0-7 3.122-7 7v71c0 3.878 3.122 7 7 7h60c3.878 0 7-3.122 7-7v-5h9.5c1.385 0 2.5-1.115 2.5-2.5v-56c0-1.385-1.115-2.5-2.5-2.5h-9.5v-5c0-3.878-3.122-7-7-7h-60z" opacity=".3"/><path fill="url(#bu)" d="m12 7c-3.324 0-6 2.676-6 6v72c0 3.324 2.676 6 6 6h60c3.324 0 6-2.676 6-6v-6h10c1.108 0 2-0.892 2-2v-56c0-1.108-0.892-2-2-2h-10v-6c0-3.324-2.676-6-6-6h-60z" opacity=".45"/><path fill="url(#ec)" d="m12 6c-3.324 0-6 2.676-6 6v72c0 3.324 2.676 6 6 6h60c3.324 0 6-2.676 6-6v-6h10c1.108 0 2-0.892 2-2v-56c0-1.108-0.892-2-2-2h-10v-6c0-3.324-2.676-6-6-6h-60z"/><path fill="url(#eb)" d="m78 18v60h10c1.108 0 2-0.892 2-2v-56c0-1.108-0.892-2-2-2h-10z"/><path fill="url(#ea)" d="m12 6c-3.324 0-6 2.676-6 6v72c0 2.9849 2.1528 5.4349 5 5.9062-2.2895-0.462-4-2.47-4-4.906v-72c0-2.785 2.2155-5 5-5h60c2.7845 0 5 2.2155 5 5v6a1.0053 1.0053 0 0 0 1 1h10c0.56852 0 1 0.43148 1 1v56c0 0.56852-0.43148 1-1 1 1.108 0 2-0.892 2-2v-56c0-1.108-0.892-2-2-2h-10v-6c0-3.324-2.676-6-6-6h-60zm65.844 72a1.0053 1.0053 0 0 0 -0.844 1v6c0 2.4365-1.7105 4.4441-4 4.9062 2.847-0.471 5-2.921 5-5.906v-6a1.0053 1.0053 0 0 0 -0.15625 0z" opacity=".35"/><path fill="url(#dv)" d="m12 6c-3.324 0-6 2.676-6 6v72c0 3.324 2.676 6 6 6h60c3.324 0 6-2.676 6-6v-6h10c1.108 0 2-0.892 2-2v-56c0-1.108-0.892-2-2-2h-10v-6c0-3.324-2.676-6-6-6h-60zm0 1.9688h60c2.2708 0 4.0312 1.7605 4.0312 4.0312v6c-0.003 1.032 0.937 1.972 1.969 1.969h10c0.05478 0 0.03125-0.02353 0.03125 0.03125v56c0 0.05478 0.02353 0.03125-0.03125 0.03125h-10c-1.032-0.003-1.972 0.937-1.969 1.969v6c0 2.2708-1.7605 4.0312-4.0312 4.0312h-60c-2.2708 0-4.0312-1.76-4.0312-4.031v-72c0-2.2701 1.7604-4.0305 4.0312-4.0305z" opacity=".2"/><rect width="10" height="2" x="-88" y="72" fill="url(#bs)" transform="scale(-1,1)"/><rect width="10" height="2" x="-88" y="68" fill="url(#bq)" transform="scale(-1,1)"/><rect width="10" height="2" x="-88" y="64" fill="url(#z)" transform="scale(-1,1)"/><rect width="10" height="2" x="-88" y="60" fill="url(#y)" transform="scale(-1,1)"/><rect width="10" height="2" x="-88" y="56" fill="url(#x)" transform="scale(-1,1)"/><rect width="10" height="2" x="-88" y="52" fill="url(#k)" transform="scale(-1,1)"/><rect width="10" height="2" x="-88" y="48" fill="url(#j)" transform="scale(-1,1)"/><rect width="10" height="2" x="-88" y="44" fill="url(#i)" transform="scale(-1,1)"/><rect width="10" height="2" x="-88" y="34" fill="url(#hk)" transform="scale(-1,1)"/><rect width="10" height="2" x="-88" y="30" fill="url(#hj)" transform="scale(-1,1)"/><rect width="10" height="2" x="-88" y="26" fill="url(#hi)" transform="scale(-1,1)"/><rect width="10" height="2" x="-88" y="22" fill="url(#hh)" transform="scale(-1,1)"/><path d="m10 56 6 6h32l6-6v-16l2-2h22v-18h-26l-4-4h-16l-2 2h-14l-6 6v32zm18.019 23.974 0.109-5.996 2.071-1.854 37.049 0.109 2.558-2.058l0.117-24.117 4.077-4.058h4v32h-4l-2 2h-6l-2 2v4l-4 4h-26l-5.9814-6.0262z" opacity=".15"/><g fill="none" stroke="#fc0" stroke-width=".5"><path d="m18 64 3-3h53l4-4" opacity=".4"/><path d="m78 61-5 5h-35" opacity=".5"/><path d="m38 68h35l3-3h2" opacity=".5"/><path d="m24 70 2 2h26l2 2" opacity=".5"/><path d="m66 70h7l3 3h2" opacity=".5"/><path d="m33.866 79.995 2.134 2.005h4l4 4h5l4-4" opacity=".5"/><path d="m40 80 4 4h5l2-2" opacity=".5"/><path d="m24 64 1-1h46" opacity=".5"/></g><path fill="#fc0" d="m71.806 63.061a0.90295 0.90295 0 1 1 -1.8059 0 0.90295 0.90295 0 1 1 1.8059 0z" opacity=".5" transform="matrix(1.1075,0,0,1.1075,-6.5247,-6.8403)"/><g fill="none" stroke="#fc0" stroke-width=".5"><path d="m78 23h-2l-5-5h-17l-6 6" opacity=".5"/><path d="m39 18h11l3-3h16" opacity=".5"/><path d="m50 26 4-4h17l5 5h2" opacity=".5"/><path d="m52 39h16l6 6h4" opacity=".5"/><path d="m78 49h-4l-6-6h-6" opacity=".5"/><path d="m62 47h6l6 6h4" opacity=".5"/><path d="m78 31h-2l-6-6" opacity=".5"/><path d="m78 35h-2l-6-6" opacity=".5"/><path d="m51 59h10l6-6" opacity=".5"/></g><g fill="#fc0"><path d="m68 53a1 1 0 1 1 -2 0 1 1 0 1 1 2 0z" opacity=".5"/><path d="m51 59a1 1 0 1 1 -2 0 1 1 0 1 1 2 0z" opacity=".5"/><path d="m71 15a1 1 0 1 1 -2 0 1 1 0 1 1 2 0z" opacity=".5"/><path d="m39 18a1 1 0 1 1 -2 0 1 1 0 1 1 2 0z" opacity=".5"/><path d="m71 74a1 1 0 1 1 -2 0 1 1 0 1 1 2 0z" opacity=".5"/></g><g fill="none" stroke="#fc0" stroke-width=".5"><path d="m69 74h-3l-4 4h-2" opacity=".5"/><path d="m32 79h-8l-3 3" opacity=".5"/><path d="m32 77h-8l-6-6v-1" opacity=".5"/><path d="m13 55v16l4 4" opacity=".5"/></g><path fill="#fc0" d="m71.806 63.061a0.90295 0.90295 0 1 1 -1.8059 0 0.90295 0.90295 0 1 1 1.8059 0z" opacity=".5" transform="matrix(1.1075,0,0,1.1075,-61.525,5.1597)"/><path fill="#fc0" d="m71.806 63.061a0.90295 0.90295 0 1 1 -1.8059 0 0.90295 0.90295 0 1 1 1.8059 0z" opacity=".5" transform="matrix(1.1075,0,0,1.1075,-57.525,12.16)"/><path fill="none" stroke="#fc0" stroke-width=".5" d="m11 62v10l6 6" opacity=".5"/><path fill="#fc0" d="m71.806 63.061a0.90295 0.90295 0 1 1 -1.8059 0 0.90295 0.90295 0 1 1 1.8059 0z" opacity=".5" transform="matrix(1.1075,0,0,1.1075,-61.525,8.1597)"/><path fill="#fc0" d="m71.806 63.061a0.90295 0.90295 0 1 1 -1.8059 0 0.90295 0.90295 0 1 1 1.8059 0z" opacity=".5" transform="matrix(1.1075,0,0,1.1075,-67.525,-8.8403)"/><path fill="none" stroke="#fc0" stroke-width=".5" d="m50 14 2-2h12" opacity=".5"/><path fill="#fc0" d="m71.806 63.061a0.90295 0.90295 0 1 1 -1.8059 0 0.90295 0.90295 0 1 1 1.8059 0z" opacity=".5" transform="matrix(1.1075,0,0,1.1075,-13.525,-57.84)"/><path fill="#fc0" d="m71.806 63.061a0.90295 0.90295 0 1 1 -1.8059 0 0.90295 0.90295 0 1 1 1.8059 0z" opacity=".5" transform="matrix(1.1075,0,0,1.1075,-28.525,-55.84)"/><rect width="66" height="66" x="15" y="15" fill="url(#dx)" stroke="#fff" stroke-linecap="round" stroke-width=".5" clip-path="url(#dz)" filter="url(#dy)" opacity=".1" rx="12" ry="12"/><g fill="#333"><path d="m15.75 22.938c-1.6971 0.16914-1.9852 2.0571-1.8125 3.4333 0.02083 10.271-0.04166 20.55 0.03125 30.817 0.08169 1.7151 1.9956 2.0546 3.3708 1.875 10.282-0.02088 20.57 0.04173 30.848-0.03125 1.7151-0.08169 2.0546-1.9956 1.875-3.3708-0.02088-10.282 0.04173-20.57-0.03125-30.848-0.08169-1.7151-1.9956-2.0546-3.3708-1.875h-30.91zm40 0c-1.6971 0.16914-1.9852 2.0571-1.8125 3.4333 0.09266 2.4653-0.1926 4.974 0.15625 7.4104 0.83275 1.8698 3.1429 1.1345 4.7528 1.2812 3.2468-0.05984 8.5126 0.12142 11.747-0.09375 1.9536-0.60638 1.3939-2.9219 1.4688-4.4804-0.0872-2.0855 0.18484-4.2127-0.15625-6.2696-0.83275-1.8698-5.1429-1.1345-6.7528-1.2812h-9.4034zm0 18c-1.6971 0.16914-1.9852 2.0571-1.8125 3.4333 0.1007 1.0635 0.22506 1.9488 0 2.9953-0.212 1.066 0.351 2.162 0.062 3.133-0.08823 2.3513-0.13932 4.7452 0.03125 7.0938 0.58134 1.8775 2.8546 1.4901 4.375 1.4062 1.8363-0.30517 1.722-2.416 1.6562-3.8419v-4.0956c1.4058 0.01885 3.417 0.26536 3.9062-1.4688 0.12552-1.1844 0.23368-2.5326-0.15625-3.625 0.38252-1.2363 0.38327-2.7012 0-3.9375-0.99448-1.6999-3.2147-0.913-4.8265-1.0938h-3.236zm-40 22c-1.6971 0.16914-1.9852 2.0571-1.8125 3.4333 0.12517 1.8572-0.27489 3.8051 0.25 5.5979 0.99448 1.6999 3.2147 0.913 4.8265 1.0938 1.1429 0.09811 2.0719-0.43069 3.1534 0 1.6077-0.09977 3.3618 0.23719 4.8638-0.25 1.3367 0.48875 2.8189 0.14852 4.2188 0.25-1.873 0.77762-1.186 3.0682-1.3125 4.6479 0.19383 1.6153-0.53838 3.6098 0.75 4.8834 1.4888 0.88559 3.3443 0.2982 4.9963 0.46875 1.1072-0.3551 2.0061 0.0042 3.1534 0 1.6182-0.19721 3.7542 0.59506 4.8815-0.9375 0.68476-1.5979 0.19591-3.4408 0.34375-5.1437 0.01105-1.4179 0.2834-3.4524-1.4688-3.95-1.2892-0.19435-2.6053-0.04863-3.9062-0.09375 1.9704-0.75516 1.2363-3.1556 1.375-4.7841-0.1963-1.6154 0.59345-3.7474-0.9375-4.8722-1.6436-0.68756-3.5324-0.19516-5.2812-0.34375-0.93318 0.44067-1.8385-0.15522-2.8484 0-1.3328 0.12027-2.7704-0.26917-4.0266 0.25-1.7038-0.49609-3.563-0.16605-5.3282-0.23058-0.93298 0.43484-1.9481-0.24954-2.9801-0.01942h-2.9104zm28 0c-1.6971 0.16914-1.9852 2.0571-1.8125 3.4333 0.12517 1.8572-0.27489 3.8051 0.25 5.5979 0.99448 1.6999 3.2147 0.913 4.8265 1.0938 1.1798 0.06202 3.4761-0.53092 1.028 0.22048-2.3282 0.9173-2.1595 3.5216-2.1046 5.5613-0.0043 2.053-0.34663 4.6888 1.8734 5.7842 2.0087 0.80735 4.2567 0.28444 6.3776 0.43408 2.0943-0.17446 4.3877 0.46737 6.2944-0.61379 2.2488-1.4879 1.4226-4.3736 1.5796-6.6325 0.84468-2.1909-2.216-4.8575-2.4352-4.7537 1.0837-0.27656 1.9346-0.08788 3.0424 0 1.6279-0.19675 3.6386 0.54324 4.924-0.75 0.88559-1.4888 0.2982-3.3443 0.46875-4.9963-0.042-1.506 0.415-3.72-1.468-4.285-1.703-0.15-3.453-0.142-5.156-0.031-0.9436 0.28686-2.0579-0.27568-3.112-0.0625-1.1133 0.09732-2.318-0.23348-3.3568 0.25-1.7038-0.49609-3.563-0.16605-5.3282-0.23058-0.93298 0.43484-1.9481-0.24954-2.9801-0.01942h-2.9104zm-10.75 9.843c0.92443 0.23404-0.93784 0.25473 0 0zm22 0c0.92443 0.23404-0.93784 0.25473 0 0zm-18.312 0.281c0.91036-0.17061 0.45413 0.31064 0 0z" opacity=".1"/><path d="m15.906 24.062c-0.46 0.042-0.85 0.476-0.844 0.938v32c-0.0051 0.49225 0.44525 0.9426 0.9375 0.9375h32c0.492 0.005 0.943-0.446 0.938-0.938v-32c0.005-0.492-0.446-0.943-0.938-0.938h-32c-0.03122-0.0016-0.06253-0.0016-0.09375 0zm40 0c-0.46 0.042-0.85 0.476-0.844 0.938v8c-0.0051 0.49225 0.44525 0.9426 0.9375 0.9375h14c0.492 0.005 0.943-0.446 0.938-0.938v-8c0.005-0.492-0.446-0.943-0.938-0.938h-14c-0.03122-0.0016-0.06253-0.0016-0.09375 0zm0 18c-0.46 0.042-0.85 0.476-0.844 0.938v2c-0.0051 0.49225 0.44525 0.9426 0.9375 0.9375h6c0.492 0.005 0.943-0.446 0.938-0.938v-2c0.005-0.492-0.446-0.943-0.938-0.938h-6c-0.03122-0.0016-0.06253-0.0016-0.09375 0zm0 4c-0.46 0.042-0.85 0.476-0.844 0.938v2c-0.0051 0.49225 0.44525 0.9426 0.9375 0.9375h6c0.492 0.005 0.943-0.446 0.938-0.938v-2c0.005-0.492-0.446-0.943-0.938-0.938h-6c-0.03122-0.0016-0.06253-0.0016-0.09375 0zm0 4c-0.46 0.042-0.85 0.476-0.844 0.938v6c-0.0051 0.49225 0.44525 0.9426 0.9375 0.9375h2c0.492 0.005 0.943-0.446 0.938-0.938v-6c0.005-0.492-0.446-0.943-0.938-0.938h-2c-0.03122-0.0016-0.06253-0.0016-0.09375 0zm-40 14c-0.46 0.042-0.85 0.476-0.844 0.938v6c-0.0051 0.49225 0.44525 0.9426 0.9375 0.9375h4c0.492 0.005 0.943-0.446 0.938-0.938v-6c0.005-0.492-0.446-0.943-0.938-0.938h-4c-0.03122-0.0016-0.06253-0.0016-0.09375 0zm6 0c-0.46 0.042-0.85 0.476-0.844 0.938v6c-0.0051 0.49225 0.44525 0.9426 0.9375 0.9375h4c0.492 0.005 0.943-0.446 0.938-0.938v-6c0.005-0.492-0.446-0.943-0.938-0.938h-4c-0.03122-0.0016-0.06253-0.0016-0.09375 0zm6 0c-0.46 0.042-0.85 0.476-0.844 0.938v6c-0.0051 0.49225 0.44525 0.9426 0.9375 0.9375h4c0.492 0.005 0.943-0.446 0.938-0.938v-6c0.005-0.492-0.446-0.943-0.938-0.938h-4c-0.03122-0.0016-0.06253-0.0016-0.09375 0zm6 0c-0.46 0.042-0.85 0.476-0.844 0.938v6c-0.0051 0.49225 0.44525 0.9426 0.9375 0.9375h4c0.492 0.005 0.943-0.446 0.938-0.938v-6c0.005-0.492-0.446-0.943-0.938-0.938h-4c-0.03122-0.0016-0.06253-0.0016-0.09375 0zm10 0c-0.46 0.042-0.85 0.476-0.844 0.938v6c-0.0051 0.49225 0.44525 0.9426 0.9375 0.9375h4c0.492 0.005 0.943-0.446 0.938-0.938v-6c0.005-0.492-0.446-0.943-0.938-0.938h-4c-0.03122-0.0016-0.06253-0.0016-0.09375 0zm6 0c-0.46 0.042-0.85 0.476-0.844 0.938v6c-0.0051 0.49225 0.44525 0.9426 0.9375 0.9375h4c0.492 0.005 0.943-0.446 0.938-0.938v-6c0.005-0.492-0.446-0.943-0.938-0.938h-4c-0.03122-0.0016-0.06253-0.0016-0.09375 0zm6 0c-0.46 0.042-0.85 0.476-0.844 0.938v6c-0.0051 0.49225 0.44525 0.9426 0.9375 0.9375h4c0.492 0.005 0.943-0.446 0.938-0.938v-6c0.005-0.492-0.446-0.943-0.938-0.938h-4c-0.03122-0.0016-0.06253-0.0016-0.09375 0zm6 0c-0.46 0.042-0.85 0.476-0.844 0.938v6c-0.0051 0.49225 0.44525 0.9426 0.9375 0.9375h4c0.492 0.005 0.943-0.446 0.938-0.938v-6c0.005-0.492-0.446-0.943-0.938-0.938h-4c-0.03122-0.0016-0.06253-0.0016-0.09375 0zm-30 10c-0.46 0.042-0.85 0.476-0.844 0.938v6c-0.0051 0.49225 0.44525 0.9426 0.9375 0.9375h4c0.492 0.005 0.943-0.446 0.938-0.938v-6c0.005-0.492-0.446-0.943-0.938-0.938h-4c-0.03122-0.0016-0.06253-0.0016-0.09375 0zm6 0c-0.46 0.042-0.85 0.476-0.844 0.938v6c-0.0051 0.49225 0.44525 0.9426 0.9375 0.9375h4c0.492 0.005 0.943-0.446 0.938-0.938v-6c0.005-0.492-0.446-0.943-0.938-0.938h-4c-0.03122-0.0016-0.06253-0.0016-0.09375 0zm11.594 0c-1.329 0-2.4375 1.1085-2.4375 2.4375v5c0 1.329 1.1085 2.4375 2.4375 2.4375h9c1.329 0 2.4375-1.1085 2.4375-2.4375v-5c0-1.329-1.1085-2.4375-2.4375-2.4375h-9z" opacity=".15"/><path d="m16 25v32h32v-32h-32zm40 0v8h14v-8h-14zm0 18v2h6v-2h-6zm0 4v2h6v-2h-6zm0 4v6h2v-6h-2zm-40 14v6h4v-6h-4zm6 0v6h4v-6h-4zm6 0v6h4v-6h-4zm6 0v6h4v-6h-4zm10 0v6h4v-6h-4zm6 0v6h4v-6h-4zm6 0v6h4v-6h-4zm6 0v6h4v-6h-4zm-30 10v6h4v-6h-4zm6 0v6h4v-6h-4zm11.5 0c-0.831 0-1.5 0.669-1.5 1.5v5c0 0.831 0.669 1.5 1.5 1.5h9c0.831 0 1.5-0.669 1.5-1.5v-5c0-0.831-0.669-1.5-1.5-1.5h-9z" opacity=".3"/></g><rect width="32" height="32" x="16" y="24" fill="url(#dw)"/><rect width="14" height="8" x="56" y="24" fill="url(#ed)"/><g fill="#ccc"><rect width="4" height="6" x="16" y="64"/><rect width="4" height="6" x="22" y="64"/><rect width="4" height="6" x="28" y="64"/><rect width="4" height="6" x="34" y="64"/></g><rect width="4" height="6" x="44" y="64" fill="url(#hg)"/><rect width="4" height="6" x="32" y="74" fill="url(#hf)"/><rect width="4" height="6" x="38" y="74" fill="url(#he)"/><rect width="2" height="6" x="56" y="50" fill="#ccc"/><rect width="12" height="8" x="48" y="74" fill="url(#hd)" rx="1.5" ry="1.5"/><rect width="10" height="6" x="49" y="75" fill="url(#hc)" rx="1" ry="1"/><path fill="url(#hb)" d="m16 24v32h32v-32h-32zm1 1h30v30h-30v-30z" opacity=".4"/><rect width="4" height="1" x="12" y="54" fill="url(#ha)"/><rect width="4" height="1" x="12" y="52" fill="url(#gz)"/><rect width="4" height="1" x="12" y="50" fill="url(#gy)"/><rect width="4" height="1" x="12" y="48" fill="url(#gx)"/><rect width="4" height="1" x="12" y="46" fill="url(#gw)"/><rect width="4" height="1" x="12" y="44" fill="url(#gv)"/><rect width="4" height="1" x="12" y="42" fill="url(#gu)"/><rect width="4" height="1" x="12" y="40" fill="url(#gt)"/><rect width="4" height="1" x="12" y="38" fill="url(#gs)"/><rect width="4" height="1" x="12" y="36" fill="url(#gr)"/><rect width="4" height="1" x="12" y="34" fill="url(#gq)"/><rect width="4" height="1" x="12" y="32" fill="url(#gp)"/><rect width="4" height="1" x="12" y="30" fill="url(#go)"/><rect width="4" height="1" x="12" y="28" fill="url(#gn)"/><rect width="4" height="1" x="12" y="26" fill="url(#gm)"/><rect width="4" height="1" x="12" y="24" fill="url(#gl)"/><rect width="4" height="1" x="20" y="-18" fill="url(#gk)" transform="rotate(90)"/><rect width="4" height="1" x="20" y="-20" fill="url(#gj)" transform="rotate(90)"/><rect width="4" height="1" x="20" y="-22" fill="url(#gi)" transform="rotate(90)"/><rect width="4" height="1" x="20" y="-24" fill="url(#gh)" transform="rotate(90)"/><rect width="4" height="1" x="20" y="-26" fill="url(#gg)" transform="rotate(90)"/><rect width="4" height="1" x="20" y="-28" fill="url(#gf)" transform="rotate(90)"/><rect width="4" height="1" x="20" y="-30" fill="url(#ge)" transform="rotate(90)"/><rect width="4" height="1" x="20" y="-32" fill="url(#gd)" transform="rotate(90)"/><rect width="4" height="1" x="20" y="-34" fill="url(#gc)" transform="rotate(90)"/><rect width="4" height="1" x="20" y="-36" fill="url(#gb)" transform="rotate(90)"/><rect width="4" height="1" x="20" y="-38" fill="url(#ga)" transform="rotate(90)"/><rect width="4" height="1" x="20" y="-40" fill="url(#fz)" transform="rotate(90)"/><rect width="4" height="1" x="20" y="-42" fill="url(#fy)" transform="rotate(90)"/><rect width="4" height="1" x="20" y="-44" fill="url(#fx)" transform="rotate(90)"/><rect width="4" height="1" x="20" y="-46" fill="url(#fw)" transform="rotate(90)"/><rect width="4" height="1" x="20" y="-48" fill="url(#fv)" transform="rotate(90)"/><rect width="4" height="1" x="-52" y="-26" fill="url(#fu)" transform="scale(-1)"/><rect width="4" height="1" x="-52" y="-28" fill="url(#ft)" transform="scale(-1)"/><rect width="4" height="1" x="-52" y="-30" fill="url(#fs)" transform="scale(-1)"/><rect width="4" height="1" x="-52" y="-32" fill="url(#fr)" transform="scale(-1)"/><rect width="4" height="1" x="-52" y="-34" fill="url(#fq)" transform="scale(-1)"/><rect width="4" height="1" x="-52" y="-36" fill="url(#fp)" transform="scale(-1)"/><rect width="4" height="1" x="-52" y="-38" fill="url(#fo)" transform="scale(-1)"/><rect width="4" height="1" x="-52" y="-40" fill="url(#fn)" transform="scale(-1)"/><rect width="4" height="1" x="-52" y="-42" fill="url(#fm)" transform="scale(-1)"/><rect width="4" height="1" x="-52" y="-44" fill="url(#fl)" transform="scale(-1)"/><rect width="4" height="1" x="-52" y="-46" fill="url(#fk)" transform="scale(-1)"/><rect width="4" height="1" x="-52" y="-48" fill="url(#fj)" transform="scale(-1)"/><rect width="4" height="1" x="-52" y="-50" fill="url(#fi)" transform="scale(-1)"/><rect width="4" height="1" x="-52" y="-52" fill="url(#fh)" transform="scale(-1)"/><rect width="4" height="1" x="-52" y="-54" fill="url(#fg)" transform="scale(-1)"/><rect width="4" height="1" x="-52" y="-56" fill="url(#ff)" transform="scale(-1)"/><rect width="4" height="1" x="-60" y="46" fill="url(#fe)" transform="rotate(-90)"/><rect width="4" height="1" x="-60" y="44" fill="url(#fd)" transform="rotate(-90)"/><rect width="4" height="1" x="-60" y="42" fill="url(#fc)" transform="rotate(-90)"/><rect width="4" height="1" x="-60" y="40" fill="url(#fb)" transform="rotate(-90)"/><rect width="4" height="1" x="-60" y="38" fill="url(#fa)" transform="rotate(-90)"/><rect width="4" height="1" x="-60" y="36" fill="url(#ez)" transform="rotate(-90)"/><rect width="4" height="1" x="-60" y="34" fill="url(#ey)" transform="rotate(-90)"/><rect width="4" height="1" x="-60" y="32" fill="url(#ex)" transform="rotate(-90)"/><rect width="4" height="1" x="-60" y="30" fill="url(#ew)" transform="rotate(-90)"/><rect width="4" height="1" x="-60" y="28" fill="url(#ev)" transform="rotate(-90)"/><rect width="4" height="1" x="-60" y="26" fill="url(#eu)" transform="rotate(-90)"/><rect width="4" height="1" x="-60" y="24" fill="url(#et)" transform="rotate(-90)"/><rect width="4" height="1" x="-60" y="22" fill="url(#es)" transform="rotate(-90)"/><rect width="4" height="1" x="-60" y="20" fill="url(#er)" transform="rotate(-90)"/><rect width="4" height="1" x="-60" y="18" fill="url(#eq)" transform="rotate(-90)"/><rect width="4" height="1" x="-60" y="16" fill="url(#ep)" transform="rotate(-90)"/><rect width="4" height="2" x="20" y="-58" fill="url(#eo)" transform="rotate(90)"/><rect width="4" height="2" x="20" y="-62" fill="url(#en)" transform="rotate(90)"/><rect width="4" height="2" x="20" y="-66" fill="url(#em)" transform="rotate(90)"/><rect width="4" height="2" x="20" y="-70" fill="url(#el)" transform="rotate(90)"/><rect width="4" height="2" x="-36" y="-58" fill="url(#ek)" transform="matrix(0,-1,-1,0,0,0)"/><rect width="4" height="2" x="-36" y="-62" fill="url(#ej)" transform="matrix(0,-1,-1,0,0,0)"/><rect width="4" height="2" x="-36" y="-66" fill="url(#ei)" transform="matrix(0,-1,-1,0,0,0)"/><rect width="4" height="2" x="-36" y="-70" fill="url(#eh)" transform="matrix(0,-1,-1,0,0,0)"/><path fill="#fff" d="m56 24v1h14v-1h-14z" opacity=".2"/><path d="m56 31v1h14v-1h-14z" opacity=".2"/><rect width="2" height="6" x="42" y="-62" fill="#ccc" transform="rotate(90)"/><rect width="2" height="2" x="42" y="-60" fill="#767676" transform="rotate(90)"/><rect width="1" height="6" x="42" y="-62" fill="#fff" opacity=".6" transform="rotate(90)"/><rect width="2" height="6" x="46" y="-62" fill="#ccc" transform="rotate(90)"/><rect width="2" height="2" x="46" y="-60" fill="#767676" transform="rotate(90)"/><rect width="1" height="6" x="46" y="-62" fill="#fff" opacity=".6" transform="rotate(90)"/><rect width="2" height="1" x="56" y="50" fill="#fff"/><rect width="2" height="4" x="56" y="51" fill="#b28160"/><rect width="2" height="4" x="17" y="65" opacity=".3"/><rect width="4" height="1" x="16" y="64" fill="#fff" opacity=".6"/><rect width="2" height="4" x="23" y="65" opacity=".3"/><rect width="4" height="1" x="22" y="64" fill="#fff" opacity=".6"/><rect width="2" height="4" x="29" y="65" opacity=".3"/><rect width="4" height="1" x="28" y="64" fill="#fff" opacity=".6"/><rect width="2" height="4" x="35" y="65" opacity=".3"/><rect width="4" height="1" x="34" y="64" fill="#fff" opacity=".6"/><rect width="4" height="6" x="50" y="64" fill="url(#eg)"/><rect width="4" height="6" x="56" y="64" fill="url(#ef)"/><rect width="4" height="6" x="62" y="64" fill="url(#ee)"/><path fill="#fff" d="m32 74v1h4v-1h-4z" opacity=".6"/><path fill="#fff" d="m38 74v1h4v-1h-4z" opacity=".6"/></svg>