<svg xmlns="http://www.w3.org/2000/svg" xmlns:svg="http://www.w3.org/2000/svg" xmlns:xlink="http://www.w3.org/1999/xlink" id="svg2408" width="96" height="96" display="inline" version="1.0"><metadata id="metadata55"/><defs id="defs2410"><linearGradient id="linearGradient3830"><stop id="stop3832" offset="0" stop-color="#fafafa" stop-opacity=".784"/><stop id="stop3834" offset="1" stop-color="#000" stop-opacity=".078"/></linearGradient><linearGradient id="linearGradient3637"><stop id="stop3639" offset="0" stop-color="#f0f0f0" stop-opacity="1"/><stop id="stop3641" offset="1" stop-color="#dcdcdc" stop-opacity="1"/></linearGradient><linearGradient id="ButtonShadow" x1="45.448" x2="45.448" y1="92.54" y2="7.017" gradientTransform="scale(1.0058652,0.994169)" gradientUnits="userSpaceOnUse"><stop id="stop3750" offset="0" stop-color="#000" stop-opacity="1"/><stop id="stop3752" offset="1" stop-color="#000" stop-opacity=".588"/></linearGradient><linearGradient id="linearGradient3737"><stop id="stop3739" offset="0" stop-color="#fff" stop-opacity="1"/><stop id="stop3741" offset="1" stop-color="#fff" stop-opacity="0"/></linearGradient><linearGradient id="linearGradient3700"><stop id="stop3702" offset="0" stop-color="#2276c5" stop-opacity="1"/><stop id="stop3704" offset="1" stop-color="#68baf4" stop-opacity="1"/></linearGradient><filter id="filter3174" color-interpolation-filters="sRGB"><feGaussianBlur id="feGaussianBlur3176" stdDeviation="1.71"/></filter><linearGradient id="linearGradient3188" x1="36.357" x2="36.357" y1="6" y2="63.893" gradientUnits="userSpaceOnUse" xlink:href="#linearGradient3737"/><radialGradient id="radialGradient3619" cx="48" cy="90.172" r="42" fx="48" fy="90.172" gradientTransform="matrix(1.1573129,0,0,0.99590774,-7.5510206,0.19713193)" gradientUnits="userSpaceOnUse" xlink:href="#linearGradient3737"/><linearGradient id="linearGradient2843" x1="48" x2="48" y1="90" y2="5.988" gradientTransform="translate(0,100)" gradientUnits="userSpaceOnUse" xlink:href="#linearGradient3700"/><clipPath id="clipPath3625"><path id="path3627" fill="#fff" fill-opacity="1" stroke="none" d="M 0,0 0,96 96,96 96,0 0,0 z m 12,6 72,0 c 3.324,0 6,2.676 6,6 l 0,72 c 0,3.324 -2.676,6 -6,6 L 12,90 C 8.676,90 6,87.324 6,84 L 6,12 C 6,8.676 8.676,6 12,6 z"/></clipPath><linearGradient id="linearGradient3643" x1="44.512" x2="44.512" y1="6" y2="90.015" gradientUnits="userSpaceOnUse" xlink:href="#linearGradient3637"/><clipPath id="clipPath3649"><rect id="rect3651" width="76" height="76" x="10" y="10" fill="#fff" fill-opacity="1" fill-rule="nonzero" stroke="none" rx="4" ry="4"/></clipPath><filter id="filter3657" color-interpolation-filters="sRGB"><feGaussianBlur id="feGaussianBlur3659" stdDeviation="1.14"/></filter><linearGradient id="linearGradient4081"><stop id="stop4083" offset="0" stop-color="#aaa" stop-opacity="1"/><stop id="stop4085" offset="1" stop-color="#f0f0f0" stop-opacity="1"/></linearGradient><linearGradient id="linearGradient3747" x1="48" x2="48" y1="72" y2="24" gradientUnits="userSpaceOnUse" xlink:href="#linearGradient4081"/><linearGradient id="linearGradient3043" x1="36.357" x2="36.357" y1="6" y2="63.893" gradientUnits="userSpaceOnUse" xlink:href="#linearGradient3737"/><linearGradient id="linearGradient3022" x1="48" x2="48" y1="72" y2="24" gradientTransform="matrix(1.7613571,0,0,1.7613571,-36.545139,-38.120052)" gradientUnits="userSpaceOnUse" xlink:href="#linearGradient4081"/><linearGradient id="linearGradient4954" x1="48" x2="48" y1="72" y2="24" gradientTransform="matrix(1.7613571,0,0,1.7613571,-36.545139,-38.120052)" gradientUnits="userSpaceOnUse" xlink:href="#linearGradient4081"/><filter id="filter5299" height="1.5" y="-.25" color-interpolation-filters="sRGB"><feGaussianBlur id="feGaussianBlur5301" result="result6" stdDeviation="5"/><feComposite id="feComposite5303" in="SourceGraphic" in2="result6" operator="atop" result="result8"/><feComposite id="feComposite5305" in="result8" in2="SourceAlpha" operator="over" result="result9"/><feColorMatrix id="feColorMatrix5307" result="result10" values="1 0 0 0 0 0 1 0 0 0 0 0 1 0 0 0 0 0 1 0"/><feBlend id="feBlend5309" in="result10" in2="result6" mode="normal"/></filter><linearGradient id="linearGradient3885" x1="48" x2="48" y1="72" y2="24" gradientTransform="matrix(1.5650203,0,0,1.5650203,-27.12097,-28.499428)" gradientUnits="userSpaceOnUse" xlink:href="#linearGradient4081"/><linearGradient id="linearGradient3836" x1="48" x2="48" y1="67.438" y2="-14.753" gradientUnits="userSpaceOnUse" spreadMethod="pad" xlink:href="#linearGradient3830"/></defs><rect id="rect3931" width="38.75" height="38.75" x="28.625" y="27.25" fill="#5aa02c" fill-opacity="1" stroke="none"/><path id="path5333" fill="#000" fill-opacity="1" stroke="none" d="M 47.999998,5.6875 C 24.673048,5.6875 5.6875011,24.673051 5.6875011,48 c 0,23.32695 18.9855469,42.3125 42.3124969,42.3125 23.32695,0 42.312501,-18.98555 42.312501,-42.3125 0,-23.326949 -18.985551,-42.3125 -42.312501,-42.3125 z M 48,32.989998 c 7.168266,0 13.635,6.402157 13.635,13.635002 0,7.232845 -6.466734,13.634998 -13.635,13.634998 -7.168266,0 -13.634998,-6.402151 -13.634998,-13.634996 0,-7.232845 6.466732,-13.635004 13.634998,-13.635004 z" opacity=".09"/><path id="path5329" fill="#000" fill-opacity="1" stroke="none" d="M 48,7.40625 C 25.60765,7.40625 7.40625,25.607654 7.40625,48 7.40625,70.392346 25.60765,88.59375 48,88.59375 70.392346,88.59375 88.59375,70.392346 88.59375,48 88.59375,25.607654 70.392346,7.40625 48,7.40625 z m 0,24.148749 c 7.749477,0 15.069996,7.255948 15.069996,15.070003 0,7.814055 -7.320517,15.069998 -15.069994,15.069998 C 40.250525,61.695 32.93,54.439057 32.93,46.625002 32.93,38.810947 40.250523,31.554999 48,31.554999 z" opacity=".1"/><path id="path5325" fill="#000" fill-opacity="1" stroke="none" d="M 48,8.96875 C 26.46596,8.96875 8.96875,26.46596 8.96875,48 8.96875,69.53404 26.46596,87.03125 48,87.03125 69.53404,87.03125 87.03125,69.53404 87.03125,48 87.03125,26.46596 69.53404,8.96875 48,8.96875 z m 0,21.151249 c 8.78274,0 16.504997,7.722263 16.504997,16.505003 0,8.78274 -7.722257,16.504999 -16.504997,16.504999 -8.78274,0 -16.505001,-7.722261 -16.505001,-16.505001 0,-8.78274 7.722261,-16.505001 16.505001,-16.505001 z" opacity=".15"/><path id="path5321" fill="#000" fill-opacity="1" stroke="none" d="M 48,10.4375 C 27.25592,10.4375 10.4375,27.255916 10.4375,48 10.4375,68.744084 27.25592,85.5625 48,85.5625 68.744084,85.5625 85.5625,68.744084 85.5625,48 85.5625,27.255916 68.744084,10.4375 48,10.4375 z m 0,18.25 c 9.751425,0 17.94,8.315233 17.94,17.9375 0,9.622267 -8.188575,17.94 -17.94,17.94 -9.751425,0 -17.94,-8.317733 -17.94,-17.94 0,-9.622267 8.188575,-17.9375 17.94,-17.9375 z" opacity=".3"/><path id="path5317" fill="url(#linearGradient3885)" fill-opacity="1" stroke="none" d="m 48,9.0625 c -20.74408,0 -37.5625,16.818416 -37.5625,37.5625 0,20.744083 16.81842,37.5625 37.5625,37.5625 20.74408,0 37.5625,-16.818417 37.5625,-37.5625 C 85.5625,25.880916 68.74408,9.0625 48,9.0625 z M 48,27.25 c 10.59476,0 19.375,8.701759 19.375,19.375 C 67.375,57.298241 58.59476,66 48,66 37.40524,66 28.625,57.298241 28.625,46.625 28.625,35.951759 37.40524,27.25 48,27.25 z"/><path id="path3838" fill="#fff" fill-opacity="1" stroke="none" d="M 48,9.0625 C 27.276808,9.0625 10.471322,25.909721 10.4375,46.625 10.883168,26.267954 27.535996,9.84375 48,9.84375 68.464007,9.84375 85.116838,26.267954 85.5625,46.625 85.528678,25.909721 68.723194,9.0625 48,9.0625 z" opacity=".75"/><path id="path3758" fill="#000" fill-opacity="1" stroke="none" d="M 10.4375,46.625 C 10.47133,67.34028 27.276808,84.1875 48,84.1875 c 20.723194,0 37.528678,-16.847224 37.5625,-37.5625 -0.445667,20.355455 -17.098493,36 -37.5625,36 -20.464004,0 -37.116837,-15.64454 -37.5625,-36 z" opacity=".15"/><path id="path3057" fill="url(#linearGradient3836)" fill-opacity="1" stroke="none" d="m 47.999996,25.813094 c -11.49305,0 -20.8125,9.319455 -20.8125,20.8125 0,11.493045 9.31945,20.8125 20.8125,20.8125 11.49305,0 20.8125,-9.319455 20.8125,-20.8125 0,-11.493045 -9.31945,-20.8125 -20.8125,-20.8125 z m 0,1.4375 c 10.70052,0 19.375,8.674483 19.375,19.375 0,10.700517 -8.67448,19.375 -19.375,19.375 -10.70052,0 -19.375,-8.674483 -19.375,-19.375 0,-10.700517 8.67448,-19.375 19.375,-19.375 z"/></svg>