<svg xmlns="http://www.w3.org/2000/svg" xmlns:xlink="http://www.w3.org/1999/xlink" width="64" height="64" version="1.1"><defs><linearGradient id="g" x1="15.574" x2="23.578" y1="46.971" y2="46.971" gradientTransform="matrix(1.5307,0,0,1.3333,-4.0903,-4.128)" gradientUnits="userSpaceOnUse" spreadMethod="reflect" stop-color="#fff"><stop offset="0" stop-opacity="0"/><stop offset="1"/></linearGradient><linearGradient id="h" x1="361.11" x2="361.11" y1="87.05" y2="94.396" gradientTransform="matrix(1.3112,0,0,1.3337,-437.61,-66.533)" gradientUnits="userSpaceOnUse"><stop offset="0" stop-color="#787878"/><stop offset=".35" stop-color="#bebebe"/><stop offset=".494" stop-color="#c8c8c8"/><stop offset=".589" stop-color="#e6e6e6"/><stop offset="1" stop-color="#8c8c8c"/></linearGradient><linearGradient id="i" x1="61.969" x2="61.969" y1="35.944" y2="43.378" gradientTransform="matrix(1.3159,0,0,1.3335,-49.585,1.4931)" gradientUnits="userSpaceOnUse"><stop offset="0" stop-color="#464646"/><stop offset=".35" stop-color="#8c8c8c"/><stop offset=".51" stop-color="#969696"/><stop offset=".62" stop-color="#aaa"/><stop offset="1" stop-color="#646464"/></linearGradient><radialGradient id="j" cx="6.703" cy="73.616" r="7.228" gradientTransform="matrix(2.5824 0 0 .55337 14.691 17.93)" gradientUnits="userSpaceOnUse"><stop offset="0"/><stop offset="1" stop-opacity="0"/></radialGradient><linearGradient id="f" x1="12.938" x2="15.25" y1="8.438" y2="19.812" gradientTransform="matrix(1.4762 0 0 1.8 -3.4286 -.4)" gradientUnits="userSpaceOnUse" stop-color="#fff"><stop offset="0" stop-opacity=".275"/><stop offset="1" stop-opacity="0"/></linearGradient><radialGradient id="b" cx="12.244" cy="4.863" r="21" gradientTransform="matrix(1.889 .026417 -.017588 1.4767 -7.1008 8.7917)" gradientUnits="userSpaceOnUse"><stop offset="0" stop-color="#3c3c3c"/><stop offset="1" stop-color="#1e1e1e"/></radialGradient></defs><path fill="url(#j)" d="m50.667 58.667c0 2.2091-8.3574 4-18.667 4-10.309 0-18.667-1.7909-18.667-4s8.3574-4 18.667-4c10.309 0 18.667 1.7909 18.667 4z" opacity=".3"/><path fill="url(#h)" stroke="url(#i)" stroke-dashoffset=".5" stroke-linecap="round" stroke-linejoin="round" d="m23.92 48.499s0.18656 5.6778-0.74392 7.0012-2.782 1.3388-2.782 1.3388c-1.1881 0.13903-1.1979 2.6617 0 2.6617h23.212c1.1979 0 1.1883-2.5244 0-2.6617 0 0-1.8514-0.01544-2.7819-1.3388-0.93047-1.3234-0.74402-7.0012-0.74402-7.0012h-16.16v0z" enable-background="new"/><path fill="none" stroke="url(#g)" stroke-linecap="square" stroke-width="1" d="m20.514 58.5h22.973"/><rect width="63" height="44" x=".5" y="4.5" fill="#1a1a1a" stroke="#000" stroke-dashoffset=".5" stroke-linecap="round" stroke-linejoin="round" rx="1.4" ry="1.333"/><rect width="56" height="37" x="4" y="8" fill="url(#b)" fill-rule="evenodd"/><path fill="url(#f)" d="m1 5h62v14.4l-62 12.6v-27z"/></svg>