<svg xmlns="http://www.w3.org/2000/svg" xmlns:svg="http://www.w3.org/2000/svg" xmlns:xlink="http://www.w3.org/1999/xlink" id="svg2" width="96" height="96" version="1.1"><metadata id="metadata91"/><defs id="defs4"><linearGradient id="b" stop-color="#fff"><stop id="stop7" offset="0"/><stop id="stop9" offset="1" stop-opacity="0"/></linearGradient><linearGradient id="a" x1="45.448" x2="45.448" y1="92.54" y2="7.016" gradientTransform="matrix(1.0059 0 0 .99417 100 0)" gradientUnits="userSpaceOnUse"><stop id="stop12" offset="0"/><stop id="stop14" offset="1" stop-opacity=".588"/></linearGradient><linearGradient id="m" x1="32.251" x2="32.251" y1="90" y2="6" gradientTransform="translate(0,1)" gradientUnits="userSpaceOnUse" xlink:href="#a"/><linearGradient id="l" x1="32.251" x2="32.251" y1="90" y2="6" gradientTransform="matrix(1.0238 0 0 1.0119 -1.1429 .92857)" gradientUnits="userSpaceOnUse" xlink:href="#a"/><linearGradient id="k" x1="32.251" x2="32.251" y1="6.132" y2="90.239" gradientTransform="matrix(1.0238 0 0 -1.0119 -1.1429 98.071)" gradientUnits="userSpaceOnUse" xlink:href="#a"/><radialGradient id="d" cx="56.066" cy="-15.871" r="35.938" gradientTransform="matrix(-.0022616 -1.2346 1.3856 0 70.086 140.27)" gradientUnits="userSpaceOnUse"><stop id="stop20" offset="0" stop-color="#80a2c8"/><stop id="stop22" offset="1" stop-color="#2e4c6d"/></radialGradient><radialGradient id="c" cx="48" cy="90.172" r="42" gradientTransform="matrix(1.1573 0 0 .99591 -7.551 .19713)" gradientUnits="userSpaceOnUse" stop-color="#fff"><stop id="stop25" offset="0"/><stop id="stop27" offset="1" stop-opacity="0"/></radialGradient><linearGradient id="j" x1="43.179" x2="43.179" y1="13" y2="83.295" gradientTransform="matrix(1.0294 0 0 1.0294 -1.4118 -1.4118)" gradientUnits="userSpaceOnUse"><stop id="stop30" offset="0" stop-color="#919191"/><stop id="stop32" offset="1" stop-color="#fdfdfd"/></linearGradient><linearGradient id="i" x1="36.357" x2="36.357" y1="6" y2="63.893" gradientUnits="userSpaceOnUse" xlink:href="#b"/><linearGradient id="h" x1="48" x2="48" y1="90" y2="5.988" gradientUnits="userSpaceOnUse"><stop id="stop36" offset="0" stop-color="#b4b4b4"/><stop id="stop38" offset="1" stop-color="#e6e6e6"/></linearGradient><linearGradient id="g" x1="65.156" x2="65.156" y1="16.125" y2="69.688" gradientUnits="userSpaceOnUse" xlink:href="#b"/><linearGradient id="f" x1="65.156" x2="65.156" y1="16.125" y2="69.688" gradientUnits="userSpaceOnUse"><stop id="stop42" offset="0" stop-color="#9cb7d2"/><stop id="stop44" offset="1" stop-color="#e7edf3" stop-opacity="0"/></linearGradient><linearGradient id="e" x1="76.451" x2="76.451" y1="8.063" y2="72.766" gradientUnits="userSpaceOnUse" stop-color="#fff"><stop id="stop47" offset="0"/><stop id="stop49" offset="1" stop-opacity="0"/></linearGradient><linearGradient id="h-8" x1="76.451" x2="76.451" y1="8.063" y2="72.766" gradientUnits="userSpaceOnUse" stop-color="#fff"><stop id="stop48" offset="0"/><stop id="stop50" offset="1" stop-opacity="0"/></linearGradient><linearGradient id="i-9" x1="65.156" x2="65.156" y1="16.125" y2="69.688" gradientUnits="userSpaceOnUse"><stop id="stop43" offset="0" stop-color="#b7b7b7"/><stop id="stop45" offset="1" stop-color="#e7e7e7" stop-opacity="0"/></linearGradient><linearGradient id="j-6" x1="65.156" x2="65.156" y1="16.125" y2="69.688" gradientTransform="translate(1,0)" gradientUnits="userSpaceOnUse" xlink:href="#a-0"/><linearGradient id="a-0" stop-color="#fff"><stop id="stop7-1" offset="0"/><stop id="stop9-3" offset="1" stop-opacity="0"/></linearGradient><linearGradient id="linearGradient3128" x1="65.156" x2="65.156" y1="16.125" y2="69.688" gradientTransform="translate(1,0)" gradientUnits="userSpaceOnUse" xlink:href="#a-0"/></defs><g id="g51" fill="url(#k)"><path id="path53" d="m12 95.031c-5.5111 0-10.031-4.52-10.031-10.031v-71c-0.0002-5.5111 4.5199-10.031 10.031-10.031h72c5.5111 0 10.031 4.5202 10.031 10.031v71c0 5.5111-4.5202 10.031-10.031 10.031h-72z" opacity=".08"/><path id="path55" d="m12 94.031c-4.9716 0-9.0312-4.059-9.0312-9.031v-71c0-4.9716 4.0596-9.0312 9.0312-9.0312h72c4.9716 0 9.0312 4.0596 9.0312 9.0312v71c0 4.9716-4.0596 9.0312-9.0312 9.0312h-72z" opacity=".1"/><path id="path57" d="m12 93c-4.4091 0-8-3.591-8-8v-71c0-4.4091 3.5909-8 8-8h72c4.4091 0 8 3.5909 8 8v71c0 4.4091-3.5909 8-8 8h-72z" opacity=".2"/></g><rect id="rect59" width="86" height="85" x="5" y="7" fill="url(#l)" opacity=".3" rx="7" ry="7"/><rect id="rect61" width="84" height="84" x="6" y="7" fill="url(#m)" opacity=".45" rx="6" ry="6"/><path id="path63" fill="url(#d)" d="m83.937 83.875v-71.868h-71.937v71.868h71.937z"/><path id="path67" d="m19 13c-3.2894 0-6 2.7106-6 6v58c0 3.2894 2.7106 6 6 6h58c3.2894 0 6-2.7106 6-6v-58c0-3.2894-2.7106-6-6-6h-58zm0 4h58c1.1426 0 2 0.85741 2 2v58c0 1.1426-0.85741 2-2 2h-58c-1.1426 0-2-0.85741-2-2v-58c0-1.1426 0.85741-2 2-2z" opacity=".08"/><path id="path69" d="m17 14c-1.662 0-3 1.338-3 3v62c0 1.662 1.338 3 3 3h62c1.662 0 3-1.338 3-3v-62c0-1.662-1.338-3-3-3h-62zm0 1.9375h62c0.61816 0 1.0625 0.44434 1.0625 1.0625v62c0 0.61816-0.44434 1.0625-1.0625 1.0625h-62c-0.61816 0-1.0625-0.44434-1.0625-1.0625v-62c0-0.61816 0.44434-1.0625 1.0625-1.0625z" opacity=".1"/><path id="path3068" fill="#2a922a" fill-opacity=".272" fill-rule="evenodd" stroke="none" d="M 56.137112,34.983051 A 22.374401,19.932203 0 0 1 33.354244,54.911933 l 0.408467,-19.928882 z" transform="matrix(1.1412084,0,0,1.3046212,-26.690949,-33.61873)"/><path id="path3068-1" fill="#922a2a" fill-opacity=".432" fill-rule="evenodd" stroke="none" d="M 56.137112,34.983051 A 22.374401,19.932203 0 0 1 33.354244,54.911933 l 0.408467,-19.928882 z" transform="matrix(-1.1412084,0,0,-1.3046212,122.85632,131.83854)"/><path id="path71" d="m17 14c-1.662 0-3 1.338-3 3v62c0 1.662 1.338 3 3 3h62c1.662 0 3-1.338 3-3v-62c0-1.662-1.338-3-3-3h-62zm0 0.96875h62c1.1401 0 2.0312 0.89117 2.0312 2.0312v62c0 1.1401-0.89117 2.0312-2.0312 2.0312h-62c-1.1401 0-2.0312-0.89117-2.0312-2.0312v-62c0-1.1401 0.89117-2.0312 2.0312-2.0312z" opacity=".25"/><path id="path3068-0" fill="#2a922a" fill-opacity=".417" fill-rule="evenodd" stroke="none" d="M 56.137112,34.983051 A 22.374401,19.932203 0 0 1 33.354244,54.911933 l 0.408467,-19.928882 z" transform="matrix(1.1412084,0,0,1.3046212,-27.064144,-34.794159)"/><path id="path3068-0-8" fill="#2a9242" fill-opacity=".49" fill-rule="evenodd" stroke="none" d="M 56.137112,34.983051 A 22.374401,19.932203 0 0 1 33.354244,54.911933 l 0.408467,-19.928882 z" transform="matrix(1.1412084,0,0,1.3046212,-28.182788,-35.76026)"/><path id="path3068-0-0" fill="#922a2a" fill-opacity=".432" fill-rule="evenodd" stroke="none" d="M 56.137112,34.983051 A 22.374401,19.932203 0 0 1 33.354244,54.911933 l 0.408467,-19.928882 z" transform="matrix(-1.1412084,0,0,-1.3046212,122.48312,130.66312)"/><g id="g117" fill-rule="evenodd" transform="translate(2.1522733,-2.4406781)"><path id="path119" fill="url(#h-8)" d="m 44.844,8.0625 1.3438,3.875 h 32.812 c 2.754,0 5.0625,2.3085 5.0625,5.0625 v 62 c 2e-6,2.754 -2.3085,5.0625 -5.0625,5.0625 h -7.875 l 1.3438,3.875 h 11.531 c 2.2218,0 3.9375,-1.7157 3.9375,-3.9375 V 12 c 0,-2.2218 -1.716,-3.9375 -3.938,-3.9375 h -39.156 z" opacity=".28"/><path id="path121" fill="url(#i-9)" d="m 48.656,16.125 22.031,63.75 h 8.3125 c 0.5388,0 0.875,-0.3362 0.875,-0.875 V 17 c 0,-0.5388 -0.33619,-0.875 -0.875,-0.875 z" opacity=".49"/><path id="path123" fill="url(#linearGradient3128)" d="m 48.656,16.125 22.031,63.75 h 1 L 49.656,16.125 h -1 z" opacity=".35"/></g><path id="path3068-0-8-4" fill="#922a2a" fill-opacity=".432" fill-rule="evenodd" stroke="none" d="M 56.137112,34.983051 A 22.374401,19.932203 0 0 1 33.354244,54.911933 l 0.408467,-19.928882 z" transform="matrix(-1.1412084,0,0,-1.3046212,121.36448,129.69701)"/><path id="path73" fill="url(#h)" d="m12 6c-3.324 0-6 2.676-6 6v72c0 3.324 2.676 6 6 6h72c3.324 0 6-2.676 6-6v-72c0-3.324-2.676-6-6-6h-72zm5 8h1 60 1c1.6838 0 3 1.3162 3 3v1 60 1c0.000001 1.6838-1.3162 3-3 3h-1-60-1c-1.6838 0.000001-3-1.3162-3-3v-1-60-1c0-1.6838 1.3162-3 3-3z"/><path id="path75" fill="url(#i)" d="m12 6c-3.324 0-6 2.676-6 6v2 68 2c0 0.33472 0.04135 0.6507 0.09375 0.96875 0.0487 0.2956 0.09704 0.59692 0.1875 0.875 0.00988 0.03038 0.020892 0.0636 0.03125 0.09375 0.098865 0.28777 0.23488 0.54745 0.375 0.8125 0.14459 0.27351 0.31562 0.53562 0.5 0.78125 0.18438 0.24564 0.37378 0.47347 0.59375 0.6875 0.43995 0.42806 0.94291 0.81453 1.5 1.0938 0.27854 0.13961 0.57347 0.24695 0.875 0.34375-0.2562-0.10022-0.48671-0.23627-0.71875-0.375-0.00741-0.0044-0.023866 0.0045-0.03125 0-0.031933-0.0193-0.062293-0.04251-0.09375-0.0625-0.1204-0.0767-0.23102-0.16351-0.34375-0.25-0.10617-0.0808-0.21328-0.16111-0.3125-0.25-0.1778-0.162-0.3473-0.346-0.4999-0.531-0.1075-0.131-0.2183-0.266-0.3124-0.407-0.0251-0.038-0.0385-0.086-0.0626-0.125-0.0647-0.103-0.1302-0.204-0.1874-0.312-0.1011-0.195-0.2057-0.416-0.2813-0.625-0.008-0.022-0.0236-0.041-0.0313-0.063-0.0318-0.092-0.0358-0.187-0.0624-0.281-0.0304-0.107-0.0704-0.203-0.0938-0.313-0.0729-0.341-0.125-0.698-0.125-1.062v-2-68-2c0-2.782 2.2182-5 5-5h2 68 2c2.7818 0 5 2.2182 5 5v2 68 2c0 0.3643-0.05212 0.72099-0.125 1.0625-0.04415 0.20689-0.08838 0.39766-0.15625 0.59375-0.0077 0.02195-0.0233 0.04069-0.03125 0.0625-0.06274 0.17374-0.13838 0.36745-0.21875 0.53125-0.04158 0.0828-0.07904 0.16995-0.125 0.25-0.0546 0.09721-0.12677 0.18835-0.1875 0.28125-0.09411 0.14096-0.20492 0.276-0.3125 0.40625-0.14317 0.17445-0.30314 0.347-0.46875 0.5-0.01117 0.0102-0.01998 0.02115-0.03125 0.03125-0.13839 0.12556-0.28509 0.23444-0.4375 0.34375-0.10257 0.07315-0.20432 0.15336-0.3125 0.21875-0.0074 0.0045-0.02384-0.0044-0.03125 0-0.23204 0.13873-0.46255 0.27478-0.71875 0.375 0.30153-0.0968 0.59646-0.20414 0.875-0.34375 0.55709-0.27922 1.0601-0.66569 1.5-1.0938 0.21997-0.21403 0.40937-0.44186 0.59375-0.6875s0.35541-0.50774 0.5-0.78125c0.14012-0.26505 0.27614-0.52473 0.375-0.8125 0.01041-0.03078 0.02133-0.06274 0.03125-0.09375 0.09046-0.27808 0.1388-0.5794 0.1875-0.875 0.053-0.318 0.094-0.634 0.094-0.969v-2-68-2c0-3.324-2.676-6-6-6h-72z" opacity=".7"/><rect id="rect77" width="70" height="70" x="13" y="13" fill="none" stroke="url(#j)" stroke-linecap="square" stroke-linejoin="round" stroke-opacity=".7" stroke-width="2" rx="4" ry="4"/><path id="path79" fill="url(#c)" d="m12 90c-3.324 0-6-2.676-6-6v-2-68-2c0-0.33472 0.04135-0.6507 0.09375-0.96875 0.0487-0.2956 0.09704-0.59692 0.1875-0.875 0.0099-0.03 0.0209-0.063 0.0313-0.094 0.0989-0.2873 0.2349-0.547 0.375-0.812 0.1446-0.2735 0.3156-0.5356 0.5-0.7812 0.1844-0.2457 0.3738-0.4735 0.5937-0.6876 0.44-0.428 0.943-0.8145 1.5-1.0937 0.2786-0.1396 0.5735-0.2469 0.8748-0.3437-0.256 0.1002-0.4865 0.2362-0.7185 0.375-0.00741 0.0044-0.023866-0.0045-0.03125 0-0.031933 0.0193-0.062293 0.04251-0.09375 0.0625-0.1204 0.0767-0.23102 0.16351-0.34375 0.25-0.10617 0.0808-0.21328 0.16111-0.3125 0.25-0.1779 0.1614-0.3474 0.3453-0.5 0.5312-0.1075 0.1303-0.2183 0.2653-0.3124 0.4063-0.0251 0.0383-0.0385 0.0858-0.0626 0.125-0.0647 0.103-0.1302 0.2045-0.1874 0.3124-0.1011 0.1948-0.2057 0.4158-0.2813 0.625-0.008 0.0219-0.0236 0.0406-0.0313 0.0626-0.0318 0.0919-0.0358 0.1868-0.0624 0.2812-0.0304 0.1066-0.0704 0.203-0.0938 0.3125-0.0729 0.3415-0.125 0.6985-0.125 1.0625v2 68 2c0 2.7818 2.2182 5 5 5h2 68 2c2.7818 0 5-2.2182 5-5v-2-68-2c0-0.364-0.052-0.721-0.125-1.0625-0.044-0.2069-0.088-0.3977-0.156-0.5937-0.008-0.022-0.024-0.0407-0.031-0.0626-0.063-0.1737-0.139-0.3674-0.219-0.5312-0.042-0.0828-0.079-0.17-0.125-0.25-0.055-0.0972-0.127-0.1884-0.188-0.2812-0.094-0.141-0.205-0.276-0.312-0.4063-0.143-0.1745-0.303-0.347-0.469-0.5-0.011-0.0102-0.02-0.0211-0.031-0.0313-0.139-0.1255-0.285-0.2344-0.438-0.3437-0.102-0.0731-0.204-0.1534-0.312-0.2187-0.0074-0.0045-0.02384 0.0044-0.03125 0-0.23204-0.13873-0.46255-0.27478-0.71875-0.375 0.30153 0.0968 0.59646 0.20414 0.875 0.34375 0.55709 0.27922 1.0601 0.66569 1.5 1.0938 0.21997 0.21403 0.40937 0.44186 0.59375 0.6875s0.35541 0.50774 0.5 0.78125c0.14012 0.26505 0.27614 0.52473 0.375 0.8125 0.01041 0.03078 0.02133 0.06274 0.03125 0.09375 0.09046 0.27808 0.1388 0.5794 0.1875 0.875 0.053 0.318 0.094 0.634 0.094 0.969v2 68 2c0 3.324-2.676 6-6 6h-72z" opacity=".4"/></svg>