<svg xmlns="http://www.w3.org/2000/svg" xmlns:svg="http://www.w3.org/2000/svg" xmlns:xlink="http://www.w3.org/1999/xlink" id="svg2408" width="96" height="96" display="inline" version="1.0"><metadata id="metadata55"/><defs id="defs2410"><linearGradient id="linearGradient3637"><stop id="stop3639" offset="0" stop-color="#f0f0f0" stop-opacity="1"/><stop id="stop3641" offset="1" stop-color="#dcdcdc" stop-opacity="1"/></linearGradient><linearGradient id="ButtonShadow" x1="45.448" x2="45.448" y1="92.54" y2="7.017" gradientTransform="scale(1.0058652,0.994169)" gradientUnits="userSpaceOnUse"><stop id="stop3750" offset="0" stop-color="#000" stop-opacity="1"/><stop id="stop3752" offset="1" stop-color="#000" stop-opacity=".588"/></linearGradient><linearGradient id="linearGradient3737"><stop id="stop3739" offset="0" stop-color="#fff" stop-opacity="1"/><stop id="stop3741" offset="1" stop-color="#fff" stop-opacity="0"/></linearGradient><linearGradient id="linearGradient3700"><stop id="stop3702" offset="0" stop-color="#2276c5" stop-opacity="1"/><stop id="stop3704" offset="1" stop-color="#68baf4" stop-opacity="1"/></linearGradient><filter id="filter3174" color-interpolation-filters="sRGB"><feGaussianBlur id="feGaussianBlur3176" stdDeviation="1.71"/></filter><linearGradient id="linearGradient3188" x1="36.357" x2="36.357" y1="6" y2="63.893" gradientUnits="userSpaceOnUse" xlink:href="#linearGradient3737"/><radialGradient id="radialGradient3619" cx="48" cy="90.172" r="42" fx="48" fy="90.172" gradientTransform="matrix(1.1573129,0,0,0.99590774,-7.5510206,0.19713193)" gradientUnits="userSpaceOnUse" xlink:href="#linearGradient3737"/><linearGradient id="linearGradient2843" x1="48" x2="48" y1="90" y2="5.988" gradientTransform="translate(0,100)" gradientUnits="userSpaceOnUse" xlink:href="#linearGradient3700"/><clipPath id="clipPath3625"><path id="path3627" fill="#fff" fill-opacity="1" stroke="none" d="M 0,0 0,96 96,96 96,0 0,0 z m 12,6 72,0 c 3.324,0 6,2.676 6,6 l 0,72 c 0,3.324 -2.676,6 -6,6 L 12,90 C 8.676,90 6,87.324 6,84 L 6,12 C 6,8.676 8.676,6 12,6 z"/></clipPath><linearGradient id="linearGradient3643" x1="44.512" x2="44.512" y1="6" y2="90.015" gradientUnits="userSpaceOnUse" xlink:href="#linearGradient3637"/><clipPath id="clipPath3649"><rect id="rect3651" width="76" height="76" x="10" y="10" fill="#fff" fill-opacity="1" fill-rule="nonzero" stroke="none" rx="4" ry="4"/></clipPath><filter id="filter3657" color-interpolation-filters="sRGB"><feGaussianBlur id="feGaussianBlur3659" stdDeviation="1.14"/></filter><linearGradient id="linearGradient4081"><stop id="stop4083" offset="0" stop-color="#aaa" stop-opacity="1"/><stop id="stop4085" offset="1" stop-color="#f0f0f0" stop-opacity="1"/></linearGradient><linearGradient id="linearGradient2950" x1="48" x2="48" y1="72" y2="24" gradientUnits="userSpaceOnUse" xlink:href="#linearGradient4081"/><linearGradient id="linearGradient3037" x1="48" x2="48" y1="90" y2="5.988" gradientTransform="translate(0,100)" gradientUnits="userSpaceOnUse" xlink:href="#linearGradient3700"/><radialGradient id="radialGradient3040" cx="48" cy="90.172" r="42" fx="48" fy="90.172" gradientTransform="matrix(1.1573129,0,0,0.99590774,-7.5510206,0.19713193)" gradientUnits="userSpaceOnUse" xlink:href="#linearGradient3737"/><linearGradient id="linearGradient3043" x1="36.357" x2="36.357" y1="6" y2="63.893" gradientUnits="userSpaceOnUse" xlink:href="#linearGradient3737"/><linearGradient id="linearGradient3046" x1="44.512" x2="44.512" y1="6" y2="90.015" gradientUnits="userSpaceOnUse" xlink:href="#linearGradient3637"/><linearGradient id="linearGradient3003" x1="8.74" x2="8.74" y1="4.536" y2="20.492" gradientTransform="matrix(4.5355736,0,0,3.5276684,4,4)" gradientUnits="userSpaceOnUse" xlink:href="#linearGradient3904"/><linearGradient id="linearGradient3904" x1="11" x2="11" y1="3.937" y2="18.083" gradientUnits="userSpaceOnUse"><stop id="stop3906" offset="0" stop-color="#323232" stop-opacity="1"/><stop id="stop3908" offset="1" stop-color="#787878" stop-opacity="1"/></linearGradient><linearGradient id="linearGradient3041" x1="8.74" x2="8.74" y1="4.536" y2="20.492" gradientTransform="matrix(4.5355736,0,0,3.5276684,90.757773,20.791423)" gradientUnits="userSpaceOnUse" xlink:href="#linearGradient3904"/><linearGradient id="linearGradient5680" x1="48" x2="48" y1="72" y2="24" gradientUnits="userSpaceOnUse" xlink:href="#linearGradient4081"/><linearGradient id="linearGradient3003-3" x1="8.74" x2="8.74" y1="4.536" y2="20.492" gradientTransform="matrix(4.5355736,0,0,3.5276684,4,4)" gradientUnits="userSpaceOnUse" xlink:href="#linearGradient3904-8"/><linearGradient id="linearGradient3904-8" x1="11" x2="11" y1="3.937" y2="18.083" gradientUnits="userSpaceOnUse"><stop id="stop3906-3" offset="0" stop-color="#323232" stop-opacity="1"/><stop id="stop3908-7" offset="1" stop-color="#787878" stop-opacity="1"/></linearGradient><linearGradient id="linearGradient3003-2" x1="8.74" x2="8.74" y1="4.536" y2="20.492" gradientTransform="matrix(4.5355736,0,0,3.5276684,4,4)" gradientUnits="userSpaceOnUse" xlink:href="#linearGradient3904-2"/><linearGradient id="linearGradient3904-2" x1="11" x2="11" y1="3.937" y2="18.083" gradientUnits="userSpaceOnUse"><stop id="stop3906-5" offset="0" stop-color="#323232" stop-opacity="1"/><stop id="stop3908-0" offset="1" stop-color="#787878" stop-opacity="1"/></linearGradient><linearGradient id="linearGradient3885" x1="48" x2="48" y1="72" y2="24" gradientTransform="matrix(1.5650203,0,0,1.5650203,-27.12097,-28.499428)" gradientUnits="userSpaceOnUse" xlink:href="#linearGradient4081-0"/><linearGradient id="linearGradient4081-0"><stop id="stop4083-0" offset="0" stop-color="#aaa" stop-opacity="1"/><stop id="stop4085-7" offset="1" stop-color="#f0f0f0" stop-opacity="1"/></linearGradient><linearGradient id="linearGradient3089" x1="48" x2="48" y1="72" y2="24" gradientTransform="matrix(1.5650203,0,0,1.5650203,-27.120971,-28.49943)" gradientUnits="userSpaceOnUse" xlink:href="#linearGradient4081-0"/><linearGradient id="linearGradient3836" x1="48" x2="48" y1="67.438" y2="-14.753" gradientUnits="userSpaceOnUse" spreadMethod="pad" xlink:href="#linearGradient3830"/><linearGradient id="linearGradient3830"><stop id="stop3832" offset="0" stop-color="#fafafa" stop-opacity=".784"/><stop id="stop3834" offset="1" stop-color="#000" stop-opacity=".078"/></linearGradient><linearGradient id="linearGradient3070" x1="48" x2="48" y1="65.762" y2="20.779" gradientTransform="translate(-6.3151351,3.683285)" gradientUnits="userSpaceOnUse" spreadMethod="pad" xlink:href="#linearGradient3830"/><linearGradient id="linearGradient3141" x1="48" x2="48" y1="65.762" y2="20.779" gradientTransform="translate(-6.3151351,3.683285)" gradientUnits="userSpaceOnUse" spreadMethod="pad" xlink:href="#linearGradient3830"/><linearGradient id="linearGradient3146" x1="48" x2="48" y1="72" y2="24" gradientTransform="matrix(1.5650203,0,0,1.5650203,-27.120971,-28.49943)" gradientUnits="userSpaceOnUse" xlink:href="#linearGradient4081-0"/></defs><rect id="rect3099" width="52.66" height="40.917" x="21.292" y="26.495" fill="#5aa02c" fill-opacity="1" stroke="none"/><path id="path5333" fill="#000" fill-opacity="1" stroke="none" d="M 48,5.6875002 C 24.67305,5.6875002 5.6875,24.673051 5.6875,48 5.6875,71.32695 24.67305,90.3125 48,90.3125 71.32695,90.3125 90.3125,71.32695 90.3125,48 90.3125,24.673051 71.32695,5.6875002 48,5.6875002 z m 17.432718,28.9394048 0.387222,0.420152 -24.135082,24.233861 -12.261221,-12.32701 0.387264,-0.42015 11.873962,11.906851 z" display="inline" opacity=".09"/><path id="path5329" fill="#000" fill-opacity="1" stroke="none" d="M 47.999998,7.40625 C 25.607648,7.40625 7.406252,25.607654 7.406252,48 c 0,22.392346 18.201396,40.59375 40.593746,40.59375 22.39235,0 40.59375,-18.201404 40.59375,-40.59375 0,-22.392346 -18.2014,-40.59375 -40.59375,-40.59375 z M 41.684863,56.407677 65.432718,32.593973 67.852872,35.047057 41.684858,61.31385 27.390705,46.953908 29.810901,44.500826 z" display="inline" opacity=".1"/><path id="path5325" fill="#000" fill-opacity="1" stroke="none" d="M 47.999998,8.96875 C 26.465958,8.96875 8.968752,26.46596 8.968752,48 c 0,21.53404 17.497206,39.03125 39.031246,39.03125 21.53404,0 39.03125,-17.49721 39.03125,-39.03125 0,-21.53404 -17.49721,-39.03125 -39.03125,-39.03125 z M 41.684863,54.374745 65.432718,30.561041 69.885804,35.047057 41.684858,63.346782 25.357773,46.953908 29.810901,42.467894 z" display="inline" opacity=".15"/><path id="path5321" fill="#000" fill-opacity="1" stroke="none" d="M 48,10.4375 C 27.25592,10.4375 10.4375,27.255916 10.4375,48 10.4375,68.744084 27.25592,85.5625 48,85.5625 68.74408,85.5625 85.5625,68.744084 85.5625,48 85.5625,27.255916 68.74408,10.4375 48,10.4375 z m -6.315137,41.904313 23.747855,-23.813704 6.486018,6.518948 -30.233878,30.332657 -18.360017,-18.425806 6.48606,-6.518946 z" display="inline" opacity=".3"/><path id="path5317" fill="url(#linearGradient3146)" fill-opacity="1" stroke="none" d="m 48,9.0625 c -20.74408,0 -37.5625,16.81842 -37.5625,37.5625 0,20.744079 16.81842,37.5625 37.5625,37.5625 20.74408,0 37.5625,-16.818421 37.5625,-37.5625 C 85.5625,25.88092 68.74408,9.0625 48,9.0625 z m -6.31514,41.246379 23.74786,-23.8137 8.51895,8.55188 -32.26681,32.36559 -20.39295,-20.45874 8.51899,-8.55188 z" display="inline"/><path id="path3758" fill="#000" fill-opacity="1" stroke="none" d="M 10.4375,46.624999 C 10.47133,67.340279 27.276807,84.1875 48,84.1875 68.723194,84.1875 85.528677,67.340275 85.5625,46.624999 85.116832,66.980454 68.464006,82.625 48,82.625 27.535995,82.625 10.883162,66.980459 10.4375,46.624999 z" display="inline" opacity=".15"/><path id="path3838" fill="#fff" fill-opacity="1" stroke="none" d="M 48,9.0625 C 27.276808,9.0625 10.471322,25.909721 10.4375,46.625 10.883168,26.267954 27.535996,9.84375 48,9.84375 68.464007,9.84375 85.116838,26.267954 85.5625,46.625 85.52868,25.909721 68.723194,9.0625 48,9.0625 z" display="inline" opacity=".75"/><path id="path3057" fill="url(#linearGradient3141)" fill-opacity="1" stroke="none" d="M 65.432721,24.462248 41.68486,48.275947 29.8109,36.369098 19.258977,46.953908 41.684859,69.445578 75.9846,35.047057 z m -10e-7,2.032931 8.51895,8.55188 -32.266808,32.365588 -20.392952,-20.458738 8.51899,-8.55188 11.87396,11.90685 z" display="inline"/></svg>