<svg xmlns="http://www.w3.org/2000/svg" xmlns:svg="http://www.w3.org/2000/svg" xmlns:xlink="http://www.w3.org/1999/xlink" id="svg2408" width="96" height="96" version="1.0"><defs id="defs2410"><linearGradient id="linearGradient3731"><stop id="stop3733" offset="0" stop-color="#520" stop-opacity="1"/><stop id="stop3735" offset="1" stop-color="#520" stop-opacity="0"/></linearGradient><linearGradient id="linearGradient3801"><stop id="stop3803" offset="0" stop-color="#107cd9" stop-opacity="1"/><stop id="stop3805" offset="1" stop-color="#79b8e8" stop-opacity="1"/></linearGradient><linearGradient id="linearGradient3784"><stop id="stop3786" offset="0" stop-color="#1b8cee" stop-opacity="1"/><stop id="stop3788" offset="1" stop-color="#79b8e8" stop-opacity="1"/></linearGradient><linearGradient id="linearGradient3757"><stop id="stop3759" offset="0" stop-color="#389bed" stop-opacity="1"/><stop id="stop3761" offset="1" stop-color="#c2e5fc" stop-opacity="1"/></linearGradient><linearGradient id="linearGradient3748"><stop id="stop3751" offset="0" stop-color="#5aabf2" stop-opacity="1"/><stop id="stop3753" offset="1" stop-color="#badaf5" stop-opacity="1"/></linearGradient><linearGradient id="linearGradient3740"><stop id="stop3742" offset="0" stop-color="#5cacf5" stop-opacity="1"/><stop id="stop3744" offset="1" stop-color="#abd4f4" stop-opacity="1"/></linearGradient><linearGradient id="linearGradient3724"><stop id="stop3726" offset="0" stop-color="#0d82e4" stop-opacity="1"/><stop id="stop3728" offset="1" stop-color="#bcdbf7" stop-opacity="1"/></linearGradient><linearGradient id="linearGradient3707"><stop id="stop3709" offset="0" stop-color="#a8d4fb" stop-opacity="1"/><stop id="stop3711" offset="1" stop-color="#dff0fa" stop-opacity="1"/></linearGradient><linearGradient id="ButtonShadow" x1="45.448" x2="45.448" y1="92.54" y2="7.017" gradientTransform="scale(1.0058652,0.994169)" gradientUnits="userSpaceOnUse"><stop id="stop3750" offset="0" stop-color="#000" stop-opacity="1"/><stop id="stop3752" offset="1" stop-color="#000" stop-opacity=".588"/></linearGradient><linearGradient id="linearGradient3737"><stop id="stop3739" offset="0" stop-color="#fff" stop-opacity="1"/><stop id="stop3741" offset="1" stop-color="#fff" stop-opacity="0"/></linearGradient><linearGradient id="linearGradient3700"><stop id="stop3702" offset="0" stop-color="#292929" stop-opacity="1"/><stop id="stop3704" offset="1" stop-color="#5a5a5a" stop-opacity="1"/></linearGradient><filter id="filter3174" color-interpolation-filters="sRGB"><feGaussianBlur id="feGaussianBlur3176" stdDeviation="1.71"/></filter><linearGradient id="linearGradient3188" x1="36.357" x2="36.357" y1="6" y2="63.893" gradientUnits="userSpaceOnUse" xlink:href="#linearGradient3737"/><filter id="filter3794" width="1.384" height="1.384" x="-.192" y="-.192" color-interpolation-filters="sRGB"><feGaussianBlur id="feGaussianBlur3796" stdDeviation="5.28"/></filter><linearGradient id="linearGradient3613" x1="48" x2="48" y1="20.221" y2="138.661" gradientUnits="userSpaceOnUse" xlink:href="#linearGradient3737"/><radialGradient id="radialGradient3619" cx="48" cy="90.172" r="42" fx="48" fy="90.172" gradientTransform="matrix(1.1573129,0,0,0.99590774,-7.5510206,0.19713193)" gradientUnits="userSpaceOnUse" xlink:href="#linearGradient3737"/><clipPath id="clipPath3613"><rect id="rect3615" width="84" height="84" x="6" y="6" fill="#fff" fill-opacity="1" fill-rule="nonzero" stroke="none" rx="6" ry="6"/></clipPath><linearGradient id="linearGradient3617" x1="48" x2="48" y1="90" y2="5.988" gradientUnits="userSpaceOnUse" xlink:href="#linearGradient3700"/><linearGradient id="ButtonShadow-0" x1="45.448" x2="45.448" y1="92.54" y2="7.017" gradientTransform="matrix(1.0058652,0,0,0.994169,100,0)" gradientUnits="userSpaceOnUse"><stop id="stop3750-8" offset="0" stop-color="#000" stop-opacity="1"/><stop id="stop3752-5" offset="1" stop-color="#000" stop-opacity=".588"/></linearGradient><linearGradient id="linearGradient3780" x1="32.251" x2="32.251" y1="6.132" y2="90.239" gradientTransform="matrix(1.0238095,0,0,1.0119048,-1.1428571,-98.071429)" gradientUnits="userSpaceOnUse" xlink:href="#ButtonShadow-0"/><linearGradient id="linearGradient3772" x1="32.251" x2="32.251" y1="6.132" y2="90.239" gradientTransform="matrix(1.0238095,0,0,1.0119048,-1.1428571,-98.071429)" gradientUnits="userSpaceOnUse" xlink:href="#ButtonShadow-0"/><linearGradient id="linearGradient3725" x1="32.251" x2="32.251" y1="6.132" y2="90.239" gradientTransform="matrix(1.0238095,0,0,1.0119048,-1.1428571,-98.071429)" gradientUnits="userSpaceOnUse" xlink:href="#ButtonShadow-0"/><linearGradient id="linearGradient3721" x1="32.251" x2="32.251" y1="6.132" y2="90.239" gradientTransform="translate(0,-97)" gradientUnits="userSpaceOnUse" xlink:href="#ButtonShadow-0"/><linearGradient id="linearGradient3026" x1="32.251" x2="32.251" y1="6.132" y2="90.239" gradientTransform="matrix(1.0238095,0,0,1.0119048,-1.1428571,-98.071429)" gradientUnits="userSpaceOnUse" xlink:href="#ButtonShadow-0"/><linearGradient id="linearGradient3713" x1="31" x2="48.035" y1="47.979" y2="47.979" gradientUnits="userSpaceOnUse" xlink:href="#linearGradient3707"/><linearGradient id="linearGradient3722" x1="48.077" x2="65.112" y1="47.979" y2="47.979" gradientUnits="userSpaceOnUse" xlink:href="#linearGradient3707"/><linearGradient id="linearGradient3730" x1="27.395" x2="48.112" y1="59.065" y2="59.065" gradientUnits="userSpaceOnUse" xlink:href="#linearGradient3724"/><linearGradient id="linearGradient3738" x1="48" x2="69.018" y1="59.065" y2="59.065" gradientUnits="userSpaceOnUse" xlink:href="#linearGradient3724"/><linearGradient id="linearGradient3746" x1="47.917" x2="76.624" y1="33.305" y2="33.305" gradientUnits="userSpaceOnUse" xlink:href="#linearGradient3740"/><linearGradient id="linearGradient3755" x1="19.288" x2="47.995" y1="33.25" y2="33.25" gradientUnits="userSpaceOnUse" xlink:href="#linearGradient3748"/><linearGradient id="linearGradient3763" x1="19.069" x2="47.886" y1="53.65" y2="53.65" gradientUnits="userSpaceOnUse" xlink:href="#linearGradient3757"/><linearGradient id="linearGradient3773" x1="47.917" x2="76.734" y1="53.65" y2="53.65" gradientUnits="userSpaceOnUse" xlink:href="#linearGradient3757"/><linearGradient id="linearGradient3790" x1="31.085" x2="48.112" y1="59.065" y2="59.065" gradientUnits="userSpaceOnUse" xlink:href="#linearGradient3784"/><linearGradient id="linearGradient3799" x1="48" x2="69.018" y1="59.065" y2="59.065" gradientUnits="userSpaceOnUse" xlink:href="#linearGradient3801"/><linearGradient id="linearGradient3739" x1="53.246" x2="53.246" y1="77.265" y2="21.944" gradientUnits="userSpaceOnUse" xlink:href="#linearGradient3731"/><linearGradient id="linearGradient3764" x1="53.246" x2="53.246" y1="77.265" y2="21.944" gradientUnits="userSpaceOnUse" xlink:href="#linearGradient3731"/><linearGradient id="linearGradient3774" x1="53.246" x2="53.246" y1="77.265" y2="21.944" gradientUnits="userSpaceOnUse" xlink:href="#linearGradient3731"/><linearGradient id="linearGradient3782" x1="47.835" x2="48.322" y1="74.688" y2="28.007" gradientUnits="userSpaceOnUse" xlink:href="#linearGradient3731"/><radialGradient id="radialGradient3834" cx="62.625" cy="4.625" r="10.625" fx="62.625" fy="4.625" gradientTransform="matrix(2.2588166,0,0,0.91263572,-117.45828,33.833557)" gradientUnits="userSpaceOnUse" xlink:href="#linearGradient8838"/><linearGradient id="linearGradient8838"><stop id="stop8840" offset="0" stop-color="#000" stop-opacity="1"/><stop id="stop8842" offset="1" stop-color="#000" stop-opacity="0"/></linearGradient><linearGradient id="linearGradient3015-7" x1="18.379" x2="18.379" y1="44.98" y2="3.082" gradientTransform="matrix(0.66350462,0,0,0.66350472,0.07588745,0.0758879)" gradientUnits="userSpaceOnUse"><stop id="stop2492-0" offset="0" stop-color="#505050"/><stop id="stop2494-4" offset="1" stop-color="#aaa"/></linearGradient><linearGradient id="linearGradient3059" x1="18.379" x2="18.379" y1="44.98" y2="3.082" gradientTransform="matrix(1.0076034,0,0,1.0076035,-0.18248803,-0.1821806)" gradientUnits="userSpaceOnUse" xlink:href="#linearGradient3015-7"/><radialGradient id="radialGradient3013-9" cx="23.896" cy="3.99" r="20.397" gradientTransform="matrix(0,1.5835582,-2.0902688,0,24.340178,-36.357109)" gradientUnits="userSpaceOnUse"><stop id="stop3244-1" offset="0" stop-color="#fff"/><stop id="stop3246-0" offset=".262" stop-color="#ddd"/><stop id="stop3248-7" offset=".661" stop-color="#abacae"/><stop id="stop3250-5" offset="1" stop-color="#89898b"/></radialGradient><radialGradient id="radialGradient3057" cx="23.467" cy="3.99" r="20.397" fx="23.467" fy="3.99" gradientTransform="matrix(0,2.4833762,-3.6749251,0,38.662957,-55.538076)" gradientUnits="userSpaceOnUse" xlink:href="#radialGradient3013-9"/><linearGradient id="linearGradient4117-0-5"><stop id="stop4119-2-8" offset="0" stop-color="#fff" stop-opacity="1"/><stop id="stop4121-9-2" offset=".269" stop-color="#fff" stop-opacity=".235"/><stop id="stop4123-4-6" offset=".769" stop-color="#fff" stop-opacity=".157"/><stop id="stop4125-3-0" offset="1" stop-color="#fff" stop-opacity=".392"/></linearGradient><linearGradient id="linearGradient4044" x1="82.178" x2="82.178" y1="5.48" y2="45.824" gradientTransform="matrix(0.6961036,0,0,0.6961036,-31.043803,6.1434565)" gradientUnits="userSpaceOnUse" xlink:href="#linearGradient4117-0-5"/><linearGradient id="linearGradient4117-0"><stop id="stop4119-2" offset="0" stop-color="#fff" stop-opacity="1"/><stop id="stop4121-9" offset=".269" stop-color="#fff" stop-opacity=".235"/><stop id="stop4123-4" offset=".769" stop-color="#fff" stop-opacity=".157"/><stop id="stop4125-3" offset="1" stop-color="#fff" stop-opacity=".392"/></linearGradient><linearGradient id="linearGradient3813-5" x1="82.178" x2="82.178" y1="5.48" y2="45.824" gradientTransform="matrix(1.0054829,0,0,1.0054829,-55.507709,-1.7927841)" gradientUnits="userSpaceOnUse" xlink:href="#linearGradient4117-0"/><linearGradient id="linearGradient3015" x1="18.379" x2="18.379" y1="44.98" y2="3.082" gradientTransform="matrix(0.66350462,0,0,0.66350472,0.07588745,0.0758879)" gradientUnits="userSpaceOnUse"><stop id="stop2492" offset="0" stop-color="#505050"/><stop id="stop2494" offset="1" stop-color="#aaa"/></linearGradient><linearGradient id="linearGradient3055" x1="18.379" x2="18.379" y1="44.98" y2="3.082" gradientTransform="matrix(0.61435507,0,0,-0.61435517,9.2554745,38.744339)" gradientUnits="userSpaceOnUse" xlink:href="#linearGradient3015"/><radialGradient id="radialGradient3013" cx="23.896" cy="3.99" r="20.397" gradientTransform="matrix(0,1.5835582,-2.0902688,0,24.340178,-36.357109)" gradientUnits="userSpaceOnUse"><stop id="stop3244" offset="0" stop-color="#fff"/><stop id="stop3246" offset=".262" stop-color="#ddd"/><stop id="stop3248" offset=".661" stop-color="#abacae"/><stop id="stop3250" offset="1" stop-color="#89898b"/></radialGradient><radialGradient id="radialGradient3053" cx="21.707" cy="3.966" r="20.397" fx="21.707" fy="3.966" gradientTransform="matrix(0,-1.5141619,-2.2406721,0,32.940286,72.495888)" gradientUnits="userSpaceOnUse" xlink:href="#radialGradient3013"/><linearGradient id="linearGradient3856-2-3"><stop id="stop3858-7-4" offset="0" stop-color="#b67926" stop-opacity="1"/><stop id="stop3860-3-9" offset="1" stop-color="#eab41a" stop-opacity="1"/></linearGradient><linearGradient id="linearGradient3946-9-5" x1="56.724" x2="56.724" y1="42.358" y2="11.452" gradientTransform="matrix(1.5958632,0,0,1.6016152,-63.523157,-15.341709)" gradientUnits="userSpaceOnUse" xlink:href="#linearGradient3856-2-3"/><linearGradient id="linearGradient3846-6-1"><stop id="stop3848-5-9" offset="0" stop-color="#fff3cb" stop-opacity="1"/><stop id="stop3850-7-9" offset=".262" stop-color="#fdde76" stop-opacity="1"/><stop id="stop3852-8-7" offset=".661" stop-color="#f9c440" stop-opacity="1"/><stop id="stop3854-5-82" offset="1" stop-color="#e48b20" stop-opacity="1"/></linearGradient><radialGradient id="radialGradient3944-1-8" cx="13.139" cy="5.235" r="13.931" fx="13.139" fy="5.235" gradientTransform="matrix(3.3124736e-8,3.2570781,-3.8814108,3.9474245e-8,45.81861,-35.669041)" gradientUnits="userSpaceOnUse" xlink:href="#linearGradient3846-6-1"/><linearGradient id="linearGradient4117-3-5"><stop id="stop4119-3-1" offset="0" stop-color="#fff" stop-opacity="1"/><stop id="stop4121-8-0" offset=".269" stop-color="#fff" stop-opacity=".235"/><stop id="stop4123-0-8" offset=".769" stop-color="#fff" stop-opacity=".157"/><stop id="stop4125-5-7" offset="1" stop-color="#fff" stop-opacity=".392"/></linearGradient><linearGradient id="linearGradient3832-8" x1="79.074" x2="79.074" y1="43.238" y2="11.17" gradientTransform="matrix(0.9666738,0,0,0.9666738,-52.438797,-0.7973671)" gradientUnits="userSpaceOnUse" xlink:href="#linearGradient4117-3-5"/><linearGradient id="linearGradient4117-06"><stop id="stop4119-0" offset="0" stop-color="#fff" stop-opacity="1"/><stop id="stop4121-85" offset=".269" stop-color="#fff" stop-opacity=".235"/><stop id="stop4123-3" offset=".769" stop-color="#fff" stop-opacity=".157"/><stop id="stop4125-9" offset="1" stop-color="#fff" stop-opacity=".392"/></linearGradient><linearGradient id="linearGradient3813-7" x1="82.178" x2="82.178" y1="5.48" y2="45.824" gradientTransform="matrix(0.9666738,0,0,0.9666738,-52.438797,-0.7973671)" gradientUnits="userSpaceOnUse" xlink:href="#linearGradient4117-06"/><radialGradient id="radialGradient3909" cx="23.467" cy="3.99" r="20.397" fx="23.467" fy="3.99" gradientTransform="matrix(0,2.4833762,-3.6749251,0,38.662957,-55.538076)" gradientUnits="userSpaceOnUse" xlink:href="#radialGradient3013-9"/><linearGradient id="linearGradient3911" x1="18.379" x2="18.379" y1="44.98" y2="3.082" gradientTransform="matrix(1.0076034,0,0,1.0076035,-0.18248803,-0.1821806)" gradientUnits="userSpaceOnUse" xlink:href="#linearGradient3015-7"/><linearGradient id="linearGradient3913" x1="82.178" x2="82.178" y1="5.48" y2="45.824" gradientTransform="matrix(0.6961036,0,0,0.6961036,-31.043803,6.1434565)" gradientUnits="userSpaceOnUse" xlink:href="#linearGradient4117-0-5"/><linearGradient id="linearGradient3915" x1="82.178" x2="82.178" y1="5.48" y2="45.824" gradientTransform="matrix(1.0054829,0,0,1.0054829,-55.507709,-1.7927841)" gradientUnits="userSpaceOnUse" xlink:href="#linearGradient4117-0"/><radialGradient id="radialGradient3917" cx="21.707" cy="3.966" r="20.397" fx="21.707" fy="3.966" gradientTransform="matrix(0,-1.5141619,-2.2406721,0,32.940286,72.495888)" gradientUnits="userSpaceOnUse" xlink:href="#radialGradient3013"/><linearGradient id="linearGradient3919" x1="18.379" x2="18.379" y1="44.98" y2="3.082" gradientTransform="matrix(0.61435507,0,0,-0.61435517,9.2554745,38.744339)" gradientUnits="userSpaceOnUse" xlink:href="#linearGradient3015"/></defs><metadata id="metadata2413"/><g id="layer2" display="none"><rect id="rect3745" width="86" height="85" x="5" y="7" fill="url(#ButtonShadow)" fill-opacity="1" fill-rule="nonzero" stroke="none" filter="url(#filter3174)" opacity=".9" rx="6" ry="6"/></g><g id="layer3" display="inline"><path id="path3786" fill="url(#linearGradient3026)" fill-opacity="1" fill-rule="nonzero" stroke="none" d="m 12,-95.03125 c -5.5110903,0 -10.03125,4.52016 -10.03125,10.03125 l 0,71 c 0,5.5110902 4.5201598,10.03125 10.03125,10.03125 l 72,0 c 5.51109,0 10.03125,-4.5201597 10.03125,-10.03125 l 0,-71 c 0,-5.51109 -4.52016,-10.03125 -10.03125,-10.03125 l -72,0 z" display="inline" opacity=".08" transform="scale(1,-1)"/><path id="path3778" fill="url(#linearGradient3780)" fill-opacity="1" fill-rule="nonzero" stroke="none" d="m 12,-94.03125 c -4.971633,0 -9.03125,4.059617 -9.03125,9.03125 l 0,71 c 0,4.9716329 4.0596171,9.03125 9.03125,9.03125 l 72,0 c 4.971633,0 9.03125,-4.059617 9.03125,-9.03125 l 0,-71 c 0,-4.971633 -4.059617,-9.03125 -9.03125,-9.03125 l -72,0 z" display="inline" opacity=".1" transform="scale(1,-1)"/><path id="path3770" fill="url(#linearGradient3772)" fill-opacity="1" fill-rule="nonzero" stroke="none" d="m 12,-93 c -4.4091333,0 -8,3.590867 -8,8 l 0,71 c 0,4.4091333 3.5908667,8 8,8 l 72,0 c 4.409133,0 8,-3.5908667 8,-8 l 0,-71 c 0,-4.409133 -3.590867,-8 -8,-8 l -72,0 z" display="inline" opacity=".2" transform="scale(1,-1)"/><rect id="rect3723" width="86" height="85" x="5" y="-92" fill="url(#linearGradient3725)" fill-opacity="1" fill-rule="nonzero" stroke="none" display="inline" opacity=".3" rx="7" ry="7" transform="scale(1,-1)"/><rect id="rect3716" width="84" height="84" x="6" y="-91" fill="url(#linearGradient3721)" fill-opacity="1" fill-rule="nonzero" stroke="none" display="inline" opacity=".45" rx="6" ry="6" transform="scale(1,-1)"/></g><g id="layer1" display="inline"><rect id="rect2419" width="84" height="84" x="6" y="6" fill="url(#linearGradient3617)" fill-opacity="1" fill-rule="nonzero" stroke="none" rx="6" ry="6"/><path id="rect3728" fill="url(#linearGradient3188)" fill-opacity="1" fill-rule="nonzero" stroke="none" d="M 12,6 C 8.676,6 6,8.676 6,12 l 0,2 0,68 0,2 c 0,0.334721 0.04135,0.6507 0.09375,0.96875 0.0487,0.295596 0.09704,0.596915 0.1875,0.875 0.00988,0.03038 0.020892,0.0636 0.03125,0.09375 0.098865,0.287771 0.2348802,0.547452 0.375,0.8125 0.1445918,0.273507 0.3156161,0.535615 0.5,0.78125 0.1843839,0.245635 0.3737765,0.473472 0.59375,0.6875 0.439947,0.428056 0.94291,0.814526 1.5,1.09375 0.278545,0.139612 0.5734731,0.246947 0.875,0.34375 -0.2562018,-0.100222 -0.4867109,-0.236272 -0.71875,-0.375 -0.00741,-0.0044 -0.023866,0.0045 -0.03125,0 -0.031933,-0.0193 -0.062293,-0.04251 -0.09375,-0.0625 -0.120395,-0.0767 -0.2310226,-0.163513 -0.34375,-0.25 -0.1061728,-0.0808 -0.2132809,-0.161112 -0.3125,-0.25 C 8.4783201,88.557317 8.3087904,88.373362 8.15625,88.1875 8.0486711,88.057245 7.9378561,87.922215 7.84375,87.78125 7.818661,87.74287 7.805304,87.69538 7.78125,87.65625 7.716487,87.553218 7.6510225,87.451733 7.59375,87.34375 7.4927417,87.149044 7.3880752,86.928049 7.3125,86.71875 7.30454,86.69694 7.288911,86.6782 7.28125,86.65625 7.2494249,86.5643 7.2454455,86.469419 7.21875,86.375 7.1884177,86.268382 7.1483606,86.171969 7.125,86.0625 7.0521214,85.720988 7,85.364295 7,85 L 7,83 7,15 7,13 C 7,10.218152 9.2181517,8 12,8 l 2,0 68,0 2,0 c 2.781848,0 5,2.218152 5,5 l 0,2 0,68 0,2 c 0,0.364295 -0.05212,0.720988 -0.125,1.0625 -0.04415,0.206893 -0.08838,0.397658 -0.15625,0.59375 -0.0077,0.02195 -0.0233,0.04069 -0.03125,0.0625 -0.06274,0.173739 -0.138383,0.367449 -0.21875,0.53125 -0.04158,0.0828 -0.07904,0.169954 -0.125,0.25 -0.0546,0.09721 -0.126774,0.18835 -0.1875,0.28125 -0.09411,0.140965 -0.204921,0.275995 -0.3125,0.40625 -0.143174,0.17445 -0.303141,0.346998 -0.46875,0.5 -0.01117,0.0102 -0.01998,0.02115 -0.03125,0.03125 -0.138386,0.125556 -0.285091,0.234436 -0.4375,0.34375 -0.102571,0.07315 -0.204318,0.153364 -0.3125,0.21875 -0.0074,0.0045 -0.02384,-0.0044 -0.03125,0 -0.232039,0.138728 -0.462548,0.274778 -0.71875,0.375 0.301527,-0.0968 0.596455,-0.204138 0.875,-0.34375 0.55709,-0.279224 1.060053,-0.665694 1.5,-1.09375 0.219973,-0.214028 0.409366,-0.441865 0.59375,-0.6875 0.184384,-0.245635 0.355408,-0.507743 0.5,-0.78125 0.14012,-0.265048 0.276135,-0.524729 0.375,-0.8125 0.01041,-0.03078 0.02133,-0.06274 0.03125,-0.09375 0.09046,-0.278085 0.1388,-0.579404 0.1875,-0.875 C 89.95865,84.6507 90,84.334721 90,84 l 0,-2 0,-68 0,-2 C 90,8.676 87.324,6 84,6 L 12,6 z" opacity=".5"/><path id="path3615" fill="url(#radialGradient3619)" fill-opacity="1" fill-rule="nonzero" stroke="none" d="M 12,90 C 8.676,90 6,87.324 6,84 L 6,82 6,14 6,12 c 0,-0.334721 0.04135,-0.6507 0.09375,-0.96875 0.0487,-0.295596 0.09704,-0.596915 0.1875,-0.875 C 6.29113,10.12587 6.302142,10.09265 6.3125,10.0625 6.411365,9.774729 6.5473802,9.515048 6.6875,9.25 6.8320918,8.976493 7.0031161,8.714385 7.1875,8.46875 7.3718839,8.223115 7.5612765,7.995278 7.78125,7.78125 8.221197,7.353194 8.72416,6.966724 9.28125,6.6875 9.559795,6.547888 9.8547231,6.440553 10.15625,6.34375 9.9000482,6.443972 9.6695391,6.580022 9.4375,6.71875 c -0.00741,0.0044 -0.023866,-0.0045 -0.03125,0 -0.031933,0.0193 -0.062293,0.04251 -0.09375,0.0625 -0.120395,0.0767 -0.2310226,0.163513 -0.34375,0.25 -0.1061728,0.0808 -0.2132809,0.161112 -0.3125,0.25 C 8.4783201,7.442683 8.3087904,7.626638 8.15625,7.8125 8.0486711,7.942755 7.9378561,8.077785 7.84375,8.21875 7.818661,8.25713 7.805304,8.30462 7.78125,8.34375 7.716487,8.446782 7.6510225,8.548267 7.59375,8.65625 7.4927417,8.850956 7.3880752,9.071951 7.3125,9.28125 7.30454,9.30306 7.288911,9.3218 7.28125,9.34375 7.2494249,9.4357 7.2454455,9.530581 7.21875,9.625 7.1884177,9.731618 7.1483606,9.828031 7.125,9.9375 7.0521214,10.279012 7,10.635705 7,11 l 0,2 0,68 0,2 c 0,2.781848 2.2181517,5 5,5 l 2,0 68,0 2,0 c 2.781848,0 5,-2.218152 5,-5 l 0,-2 0,-68 0,-2 C 89,10.635705 88.94788,10.279012 88.875,9.9375 88.83085,9.730607 88.78662,9.539842 88.71875,9.34375 88.71105,9.3218 88.69545,9.30306 88.6875,9.28125 88.62476,9.107511 88.549117,8.913801 88.46875,8.75 88.42717,8.6672 88.38971,8.580046 88.34375,8.5 88.28915,8.40279 88.216976,8.31165 88.15625,8.21875 88.06214,8.077785 87.951329,7.942755 87.84375,7.8125 87.700576,7.63805 87.540609,7.465502 87.375,7.3125 87.36383,7.3023 87.35502,7.29135 87.34375,7.28125 87.205364,7.155694 87.058659,7.046814 86.90625,6.9375 86.803679,6.86435 86.701932,6.784136 86.59375,6.71875 c -0.0074,-0.0045 -0.02384,0.0044 -0.03125,0 -0.232039,-0.138728 -0.462548,-0.274778 -0.71875,-0.375 0.301527,0.0968 0.596455,0.204138 0.875,0.34375 0.55709,0.279224 1.060053,0.665694 1.5,1.09375 0.219973,0.214028 0.409366,0.441865 0.59375,0.6875 0.184384,0.245635 0.355408,0.507743 0.5,0.78125 0.14012,0.265048 0.276135,0.524729 0.375,0.8125 0.01041,0.03078 0.02133,0.06274 0.03125,0.09375 0.09046,0.278085 0.1388,0.579404 0.1875,0.875 C 89.95865,11.3493 90,11.665279 90,12 l 0,2 0,68 0,2 c 0,3.324 -2.676,6 -6,6 l -72,0 z" opacity=".2"/></g><g id="layer5" display="inline"><rect id="rect3171" width="66" height="66" x="15" y="15" fill="url(#linearGradient3613)" fill-opacity="1" fill-rule="nonzero" stroke="#fff" stroke-dasharray="none" stroke-dashoffset="0" stroke-linecap="round" stroke-linejoin="miter" stroke-miterlimit="4" stroke-opacity="1" stroke-width=".5" clip-path="url(#clipPath3613)" filter="url(#filter3794)" opacity=".1" rx="12" ry="12"/></g><g id="layer1-3" transform="matrix(1.5345884,0,0,1.5345884,13.282697,11.920172)"><path id="path8836" fill="url(#radialGradient3834)" fill-opacity="1" fill-rule="evenodd" stroke="none" stroke-width="1" d="m 48.000041,38.054503 a 23.999926,9.6967681 0 0 1 -47.99985201198,0 23.999926,9.6967681 0 1 1 47.99985201198,0 z" display="inline" opacity=".3" overflow="visible" visibility="visible" style="marker:none"/><path id="path2555-8" fill="url(#radialGradient3909)" stroke="url(#linearGradient3911)" stroke-dasharray="none" stroke-dashoffset="0" stroke-linecap="round" stroke-linejoin="round" stroke-miterlimit="4" stroke-width="1.004" d="m 23.999999,3.5018301 c -11.310291,0 -20.4981719,9.1880359 -20.4981719,20.4981719 0,11.310288 9.1880349,20.498171 20.4981719,20.498171 11.310289,0 20.498172,-9.188035 20.498172,-20.498171 0,-11.310291 -9.188035,-20.4981719 -20.498172,-20.4981719 z"/><path stroke-opacity="1" style="marker:none" id="path2555-8-9-6" fill="none" stroke="url(#linearGradient3913)" stroke-dasharray="none" stroke-dashoffset="0" stroke-linecap="butt" stroke-linejoin="round" stroke-miterlimit="4" stroke-width="1" d="m 23.999999,10.500001 c -7.448906,0 -13.5,6.051198 -13.5,13.500002 0,7.448901 6.051197,13.499999 13.5,13.499999 7.448902,0 13.5,-6.051197 13.5,-13.499999 0,-7.448905 -6.051196,-13.500002 -13.5,-13.500002 z" color="#000" display="inline" enable-background="accumulate" overflow="visible" visibility="visible"/><path stroke-opacity="1" style="marker:none" id="path2555-8-9" fill="none" stroke="url(#linearGradient3915)" stroke-dasharray="none" stroke-dashoffset="0" stroke-linecap="butt" stroke-linejoin="round" stroke-miterlimit="4" stroke-width="1" d="m 23.999999,4.5000026 c -10.759528,0 -19.4999998,8.7406184 -19.4999998,19.4999994 0,10.759525 8.7406178,19.499998 19.4999998,19.499998 10.759525,0 19.5,-8.740617 19.5,-19.499998 0,-10.759528 -8.740617,-19.4999994 -19.5,-19.4999994 z" color="#000" display="inline" enable-background="accumulate" overflow="visible" visibility="visible"/><path id="path2555" fill="url(#radialGradient3917)" stroke="url(#linearGradient3919)" stroke-dasharray="none" stroke-dashoffset="0" stroke-linecap="round" stroke-linejoin="round" stroke-miterlimit="4" stroke-width="1.004" d="m 24,36.498129 c -6.8961,0 -12.498128,-5.602122 -12.498128,-12.498128 0,-6.896099 5.602122,-12.498128 12.498128,-12.498128 6.896098,0 12.498127,5.602121 12.498127,12.498128 0,6.8961 -5.602121,12.498128 -12.498127,12.498128 z"/><path id="path3288-5" fill="#fff" fill-opacity="1" fill-rule="evenodd" stroke="none" d="m 25.500122,16.499847 -1.500009,0 -1.500005,10.50005 7.500035,6.000028 10e-7,-1.500006 -4.500021,-6.000029 -10e-7,-9.000043 z" opacity=".7"/><path id="path3288" fill="#6a6a68" fill-opacity="1" fill-rule="evenodd" stroke="none" d="m 25.500122,14.999839 -1.500009,0 -1.500005,10.500051 7.500035,6.000029 10e-7,-1.500008 -4.500021,-6.000029 -10e-7,-9.000043 z"/><path id="path2555-8-3" fill="url(#radialGradient3944-1-8)" fill-opacity="1" fill-rule="nonzero" stroke="url(#linearGradient3946-9-5)" stroke-dasharray="none" stroke-dashoffset="0" stroke-linecap="butt" stroke-linejoin="round" stroke-miterlimit="4" stroke-opacity="1" stroke-width=".992" d="m 4.5,3.4997673 0,16.9999997 17,0 -5.84375,-5.84375 c 2.214679,-1.973809 5.147904,-3.15625 8.34375,-3.15625 6.896032,0 12.5,5.603874 12.5,12.5 0,6.896032 -5.603875,12.5 -12.5,12.5 -4.735719,0 -8.848515,-2.642202 -10.96875,-6.53125 L 7.25,35.749767 c 3.698057,5.289472 9.811054,8.75 16.75,8.75 11.310289,0 20.5,-9.189864 20.5,-20.5 C 44.5,12.689476 35.310137,3.4997673 24,3.4997673 c -5.397232,0 -10.334862,2.0836748 -14,5.5 l -5.5,-5.5 z" color="#000" display="inline" enable-background="accumulate" overflow="visible" visibility="visible" style="marker:none"/><path id="path3611-2" fill="none" stroke="url(#linearGradient3832-8)" stroke-dasharray="none" stroke-dashoffset="0" stroke-linecap="butt" stroke-linejoin="round" stroke-miterlimit="4" stroke-opacity="1" stroke-width="1" d="m 5.4375,19.562267 c 4.604167,0 9.208333,0 13.8125,0 -1.462422,-1.500779 -3.008727,-2.932307 -4.419205,-4.476011 -0.506914,-1.100331 0.960517,-1.695548 1.619599,-2.249457 5.138346,-3.5617053 12.704702,-2.8535682 17.046259,1.66628 4.508632,4.330471 5.242832,11.891387 1.642376,17.003751 -3.40781,5.250808 -10.726154,7.465062 -16.431396,4.810654 -2.350021,-1.040029 -4.374361,-2.778272 -5.801383,-4.911467 -1.458333,1.458333 -2.9166667,2.916667 -4.375,4.375" color="#000" display="inline" enable-background="accumulate" opacity=".8" overflow="visible" visibility="visible" style="marker:none"/><path id="path3611" fill="none" stroke="url(#linearGradient3813-7)" stroke-dasharray="none" stroke-dashoffset="0" stroke-linecap="butt" stroke-linejoin="round" stroke-miterlimit="4" stroke-opacity="1" stroke-width="1" d="m 8.53125,35.781017 c 4.206466,5.715737 11.687017,8.780442 18.688946,7.517099 C 35.027607,42.099903 41.671627,35.69564 43.164837,27.940692 44.742333,20.678915 41.704976,12.703185 35.70216,8.3252372 32.355649,5.8076478 28.187799,4.4234447 24,4.4372673 18.986119,4.3879683 14.076313,6.4547123 10.422356,9.8453952 9.3936498,10.252831 8.8426309,8.9818792 8.1551372,8.4674045 7.2492581,7.5615254 6.3433791,6.6556464 5.4375,5.7497673 c 0,4.6041667 0,9.2083327 0,13.8124997" color="#000" display="inline" enable-background="accumulate" opacity=".8" overflow="visible" visibility="visible" style="marker:none"/></g></svg>